<svg class="colors-984f0096-9764-47ee-9372-60aff18e4890" version="1.1" xmlns="http://www.w3.org/2000/svg" style="display: block;" width="251" height="246" viewBox="0.00 3.36 2008.00 1968.00" preserveAspectRatio="none"><style>
.colors-984f0096-9764-47ee-9372-60aff18e4890 {
  --COLOR1: rgba(167, 164, 167, 1);
  --COLOR2: rgba(185, 185, 183, 1);
  --COLOR3: rgba(118, 107, 144, 1);
  --COLOR4: rgba(136, 154, 161, 1);
  --COLOR5: rgba(140, 142, 167, 1);
  --COLOR6: rgba(160, 168, 185, 1);
  --COLOR7: rgba(145, 147, 171, 1);
  --COLOR8: rgba(161, 172, 190, 1);
  --COLOR9: rgba(111, 113, 147, 1);
  --COLOR10: rgba(118, 129, 149, 1);
  --COLOR11: rgba(23, 36, 58, 1);
  --COLOR12: rgba(49, 57, 77, 1);
  --COLOR13: rgba(91, 93, 108, 1);
  --COLOR14: rgba(67, 70, 91, 1);
  --COLOR15: rgba(167, 169, 172, 1);
  --COLOR16: rgba(132, 133, 139, 1);
  --COLOR17: rgba(135, 140, 155, 1);
  --COLOR18: rgba(113, 118, 134, 1);
  --COLOR19: rgba(199, 197, 199, 1);
}
</style><g id="svg-group-984f0096-9764-47ee-9372-60aff18e4890">
<defs>
	<linearGradient id="Gradient1" gradientUnits="userSpaceOnUse" x1="1088.08" y1="669.029" x2="1094.59" y2="682.989">
		<stop class="stop0" offset="0" stop-opacity="0.960784" stop-color="var(--COLOR1)"/>
		<stop class="stop1" offset="1" stop-opacity="1" stop-color="var(--COLOR2)"/>
	</linearGradient>
	<linearGradient id="Gradient2" gradientUnits="userSpaceOnUse" x1="223.056" y1="1609.26" x2="247.894" y2="1603.52">
		<stop class="stop0" offset="0" stop-opacity="1" stop-color="var(--COLOR3)"/>
		<stop class="stop1" offset="1" stop-opacity="1" stop-color="var(--COLOR4)"/>
	</linearGradient>
	<linearGradient id="Gradient3" gradientUnits="userSpaceOnUse" x1="226.897" y1="571.145" x2="244.018" y2="569.783">
		<stop class="stop0" offset="0" stop-opacity="1" stop-color="var(--COLOR5)"/>
		<stop class="stop1" offset="1" stop-opacity="1" stop-color="var(--COLOR6)"/>
	</linearGradient>
	<linearGradient id="Gradient4" gradientUnits="userSpaceOnUse" x1="219.3" y1="1360.37" x2="252.319" y2="1356.43">
		<stop class="stop0" offset="0" stop-opacity="1" stop-color="var(--COLOR7)"/>
		<stop class="stop1" offset="1" stop-opacity="1" stop-color="var(--COLOR8)"/>
	</linearGradient>
	<linearGradient id="Gradient5" gradientUnits="userSpaceOnUse" x1="25.3959" y1="1293.62" x2="46.6041" y2="1292.38">
		<stop class="stop0" offset="0" stop-opacity="1" stop-color="var(--COLOR9)"/>
		<stop class="stop1" offset="1" stop-opacity="1" stop-color="var(--COLOR10)"/>
	</linearGradient>
</defs>
<path transform="translate(0,0)" fill="var(--COLOR11)" d="M 507.097 8.32934 C 533.497 6.72395 570.275 7.99975 597.732 7.96005 L 776.955 7.81424 L 1506.51 7.81676 C 1562.28 7.88149 1652.42 6.86706 1705.4 9.1899 C 1712.29 9.49198 1865 162.094 1882.46 177.153 C 1894.79 187.977 1914.26 207.532 1925.58 219.739 C 1945.69 237.298 1966.86 261.613 1986.65 280.307 C 1993.19 286.482 2001.31 296.095 2008 301.463 L 2008 326.194 C 1940.16 395.853 1868.77 465.386 1799.83 534.267 L 1749.45 584.863 C 1742.59 591.774 1724.62 610.726 1717.72 615.026 L 1716.28 615.173 C 1701.4 616.608 1674.48 615.615 1658.74 615.583 L 1555.94 615.677 C 1489.84 615.718 1424.92 616.104 1358.93 613.496 C 1286.27 610.624 1211.58 610.66 1139.03 615.484 C 1126.17 616.462 1096.58 609.754 1088.04 616.901 C 1087.66 618.244 1086.9 619.685 1088.23 621.013 C 1099.15 631.829 1111.38 640.419 1122.11 651.712 C 1132.02 662.151 1140.72 673.972 1150.21 683.512 C 1209.59 743.208 1269.28 802.762 1328.79 862.313 L 1393.47 927.092 C 1409.33 942.998 1425.51 959.696 1439.94 976.856 C 1449.27 987.959 1443.25 1002.22 1434.46 1011.27 C 1419.56 1027.41 1403.76 1042.75 1388.21 1058.27 L 1307.15 1139.18 C 1275.59 1170.78 1244.05 1202.41 1212.53 1234.04 C 1203.25 1243.35 1194.06 1257.35 1184.51 1265.66 C 1160.71 1286.36 1138.16 1307.48 1116.38 1330.34 C 1108.73 1338.36 1098.97 1346.32 1092.83 1355.54 C 1106.24 1360.37 1116.75 1355.96 1131.28 1357.04 C 1197.29 1361.95 1266.49 1360 1333.06 1359.9 L 1624.63 1359.84 C 1635.49 1359.85 1704 1358.21 1706.05 1359.33 C 1723.6 1368.99 1771.67 1421.14 1788.5 1438 C 1800.19 1449.71 1811.72 1461.69 1823.91 1472.88 C 1832.53 1480.8 1841.82 1487.95 1850.27 1496.06 C 1881.65 1526.19 1912.02 1557.56 1942.8 1588.32 C 1959.08 1604.6 1976.27 1620.49 1991.83 1637.42 C 1997.67 1643.77 2001.64 1651.99 2008 1657.78 L 2008 1677.66 C 2000.94 1684.96 1996.14 1694.16 1988.89 1701.29 C 1980.67 1709.36 1970.96 1715.72 1962.72 1723.75 C 1942.42 1743.71 1922.54 1764.18 1902.02 1783.89 C 1883.87 1801.32 1859.48 1822.07 1843.69 1841.02 C 1838 1847.96 1820.34 1866.6 1813.29 1871.62 C 1796.57 1885.23 1783.37 1899.02 1768.16 1914.19 L 1714.45 1968 L 493.423 1968 C 483.297 1956.26 470.335 1945.23 459.669 1933.82 C 453.343 1927.44 446.912 1921.13 440.592 1914.74 C 389.454 1863.08 338.132 1812.01 284.723 1762.71 C 275.239 1753.96 266.929 1742.9 257.964 1733.57 C 251.652 1727 244.768 1721.15 238.306 1714.74 C 194.941 1666.76 147.317 1622.5 101.967 1576.38 C 91.5708 1567.13 81.1559 1557.77 70.6439 1548.64 C 47.0811 1528.19 23.4972 1497.68 0 1478.49 L 0 505.431 C 13.4391 493.426 34.7723 470.753 48.1758 457.32 L 142.711 362.846 L 362.659 146.913 C 393.923 115.667 424.737 84.2004 458.047 55.0963 C 473.698 41.4214 490.167 19.6706 507.097 8.32934 z M 582.184 102.433 C 610.029 99.0359 663.664 100.912 693.654 100.965 L 894.168 100.925 L 1539.57 101.139 C 1557.92 101.18 1584.76 103.396 1602.83 101.343 C 1606.03 100.98 1613.62 94.3863 1616.36 91.6519 C 1628.21 79.7513 1639.99 67.7789 1651.69 55.7354 C 1656.95 50.2854 1664.3 41.7906 1669.64 37.0545 C 1537.67 37.8672 1405.69 37.9773 1273.71 37.3848 L 892.468 37.4702 C 815.473 37.544 735.868 36.2389 659.113 37.5155 C 631.734 38.0229 604.35 38.3074 576.966 38.3687 C 567.654 38.4118 540.299 37.9197 532.42 39.3546 C 530.422 41.4373 528.195 43.4217 526.906 45.9522 C 531.735 58.2995 569.143 95.1781 582.184 102.433 z M 602.997 1935.15 C 633.502 1937.6 676.036 1936.38 707.208 1936.36 L 882.445 1936.36 L 1405.58 1936.34 L 1573.16 1936.48 C 1582.44 1936.49 1655.83 1937.49 1659.06 1936.33 L 1663.3 1933.34 C 1662.14 1929.7 1610.5 1877.34 1603.97 1873.23 C 1584.37 1873.2 1562.7 1874.77 1542.39 1874.95 L 1383.95 1875 C 1343.92 1875 1302.19 1875.56 1262.28 1874.79 C 1106.63 1876.43 947.217 1874.8 791.354 1874.15 L 673.104 1874.3 C 654.174 1874.38 613.582 1875.1 596.262 1872.19 C 583.145 1878.54 557.497 1910.58 544.275 1921.25 C 542.619 1924.31 541.502 1925.53 542.045 1928.92 C 545.631 1932.84 546.784 1932.19 552.769 1932.59 C 566.831 1933.54 589.694 1932.01 602.997 1935.15 z M 631.013 148.228 C 629.596 141.987 630.292 138.676 630.913 132.411 C 623.73 132.044 613.985 131.827 607.078 130.713 C 612.017 135.717 624.857 149.382 629.931 152.202 L 630.81 151.671 L 631.015 149.1 C 634.935 159.225 666.817 190.023 676.608 199.841 C 698.315 195.678 730.19 196.902 753.196 196.92 L 858.282 197.032 L 1245.17 197.101 L 1423.53 197.175 C 1439.47 197.177 1491.26 195.81 1504.54 197.898 C 1517.1 194.693 1547.79 154.08 1565.45 142.821 C 1567.58 139.157 1568.46 137.929 1571.18 134.676 C 1556.63 133.61 1539.74 134.195 1524.92 134.262 L 1443.41 134.782 L 1223.32 134.692 L 816.33 134.222 C 755.505 134.213 692.498 133.338 631.709 134.381 C 631.717 139.024 631.984 143.728 631.013 148.228 z M 639.459 1824.92 C 637.177 1829.35 636.656 1828.59 637.198 1832.61 C 640.006 1835.82 639.883 1836.42 645.254 1836.71 C 682.365 1838.69 724.997 1835.25 761.599 1837.13 C 776.849 1836.75 843.18 1836.1 854.907 1839.58 C 870.359 1840.81 919.613 1841.55 933.368 1838.15 C 952.227 1837.1 1042.39 1835.29 1056.08 1840.04 C 1073.26 1839.01 1105.75 1840.3 1124.55 1840.3 L 1413.42 1840.31 L 1505.47 1840.32 C 1514.67 1840.33 1558.23 1841.55 1562.15 1838.59 C 1563.16 1834.71 1563.04 1834.86 1562.33 1830.82 C 1552.25 1823.43 1521.14 1790.8 1512.36 1780.94 C 1512.03 1777.66 1512.28 1779.18 1510.05 1776 C 1412.31 1780.35 1304.91 1777.27 1206.15 1777.63 C 1140.25 1777.98 1074.35 1777.99 1008.45 1777.67 C 978.583 1777.41 945.156 1778.08 915.702 1776.16 C 906.255 1776.46 897.266 1775.4 887.912 1775.28 C 822.697 1774.46 757.038 1776.56 691.876 1774.12 L 655.621 1809.55 C 651.456 1813.63 643.675 1822.24 639.459 1824.92 z M 538.869 1403.61 C 539.992 1450.91 539.013 1501.15 539.047 1548.71 C 539.499 1601.14 539.632 1653.57 539.446 1706 C 538.728 1743.07 538.344 1780.15 538.294 1817.22 C 538.306 1825.47 537.873 1854.14 538.946 1861.21 C 549.114 1865.69 559.163 1850.61 566.557 1844.78 C 569.404 1841.44 572.213 1838.07 574.984 1834.66 C 582.288 1821.2 595.063 1812.54 604.547 1799.45 C 605.358 1789.43 604.782 1773.82 604.708 1763.35 L 604.629 1707.74 L 604.614 1510.02 L 604.624 1237.94 C 604.638 1178.08 605.802 1119.11 602.873 1059.35 C 602.476 1053.09 603.123 1033.68 592.967 1037.9 C 577.937 1044.14 554.18 1070.29 543.551 1082.76 C 541.559 1086.22 540.033 1089.3 539.817 1093.34 C 538.409 1119.75 539.157 1147.6 539.137 1174.12 L 539.003 1325.69 C 538.999 1348.57 540.023 1381.65 538.869 1403.61 z M 562.636 913.359 C 572.194 922.052 585.715 938.145 596.017 945.319 C 600.031 943.464 600.67 942.61 604.032 939.568 C 606.325 933.387 604.613 869.83 604.617 859.12 L 604.729 669.492 C 604.319 651.869 604.418 632.934 604.756 615.319 C 606.775 510.26 601.884 403.311 604.934 298.466 C 603.696 268.196 603.856 212.413 605.769 182.874 C 598.511 176.508 592.555 165.442 586.806 160.787 C 573.878 150.319 560.455 128.438 549.229 119.152 C 546.119 123.59 547.711 124.734 544.072 127.327 C 541.166 124.633 544.554 123.792 541.603 121.587 C 537.257 123.84 538.038 131.254 538.137 135.564 C 538.465 149.88 539.167 164.19 539.339 178.512 C 539.445 201.52 539.357 224.528 539.076 247.534 L 538.731 683.759 L 538.854 808.733 C 538.852 831.536 539.615 862.704 537.308 884.895 C 540.483 887.472 560.48 910.017 562.636 913.359 z M 438.926 1863.82 C 442.525 1869.48 443.65 1870.6 448.297 1875.27 C 461.014 1887.4 473.406 1899.86 485.462 1912.65 C 487.543 1915.04 487.984 1915.75 490.747 1917.46 C 502.874 1917.67 502.287 1903.07 502.704 1894.29 C 503.755 1897.86 501.933 1897.02 503.801 1901.22 L 503.629 1901.29 C 505.945 1893.55 507.302 1854.79 503.181 1848.01 C 506.069 1815.1 504.623 1767.26 504.605 1732.82 L 504.547 1535.97 L 504.635 1317.06 C 504.654 1275.86 506.081 1225.63 503.035 1185.11 C 502.186 1181.1 502.279 1176.61 501.892 1172.5 C 500.374 1156.43 502.884 1142.94 498.454 1127.46 L 498.001 1125.85 L 496.82 1125.58 C 490.052 1129.54 446.074 1175.47 438.181 1183.95 C 440.44 1211.11 439.298 1260.38 439.326 1288.67 L 439.139 1484.11 L 439.447 1721.13 C 439.588 1765.16 441 1820.68 438.926 1863.82 z M 485.844 835.817 C 492.913 836.711 498.834 836.62 505.283 837.333 C 503.839 831.322 504.51 802.814 504.528 794.57 L 504.671 698.502 L 504.598 272.218 C 504.594 220.631 505.54 168.408 502.996 116.992 C 502.384 104.621 503.863 88.4041 501.738 76.5677 C 498.834 73.6926 495.698 69.4719 493.101 66.194 C 490.758 67.7912 488.447 69.4343 486.169 71.1222 C 476.205 78.5627 438.366 114.369 438.379 125.784 C 438.429 168.948 440.355 212.431 440.301 255.649 C 439.361 384.681 439.089 513.717 439.484 642.752 L 439.406 743.193 C 439.293 757.983 438.958 772.811 438.486 787.606 C 438.405 790.148 438.837 789.731 440.691 792.174 C 453.324 803.967 474.003 825.77 485.844 835.817 z M 773.416 293.846 C 782.047 291.089 861.606 292.752 876.143 292.682 L 1242.3 292.917 L 1350.11 293.069 C 1367.56 293.091 1393.18 293.862 1410.07 292.458 C 1418.89 282.573 1453.64 251.133 1457.59 242.113 L 1459.75 237.131 L 1459.09 235.555 C 1453.6 232.756 1444.88 232.479 1438.65 232.243 C 1414.6 229.84 1380.97 231.046 1356.16 231.101 L 1222.35 231.186 L 825.804 230.804 C 811.729 230.831 722.894 229.08 718.502 232.1 C 716.793 234.385 714.083 238.216 715.337 241.087 C 718.55 248.443 735.712 262.716 742.56 265.815 L 743.182 267.074 C 753.455 273.674 764.609 289.835 773.416 293.846 z M 638.497 1749.14 C 645.823 1749 652.948 1749.04 660.203 1750.3 C 672.847 1735.94 692.049 1721.92 702.22 1705.55 C 706.253 1699.06 704.878 1674.18 704.827 1665.62 L 704.585 1607.9 L 704.465 1421.21 L 704.299 1193.03 C 704.251 1176.49 704.457 1159.96 704.919 1143.43 C 705.235 1132.6 705.781 1121.39 705.555 1110.55 C 705.424 1104.22 699.052 1100.41 694.888 1095.4 L 693.797 1094.07 C 680.156 1081.49 666.844 1068.55 653.877 1055.28 L 651.977 1054.17 L 652.19 1052.43 C 645.964 1045.05 639.017 1038.66 632.412 1031.67 C 633.14 1036.19 636.3 1063.78 635.7 1067.39 L 636.587 1068.64 C 638.049 1066.29 637.088 1066.19 637.893 1063.68 C 640.361 1117.76 639.232 1177.37 639.253 1231.86 L 639.318 1511.25 L 639.407 1676.28 C 639.365 1693.78 640.669 1734.39 638.497 1749.14 z M 1277.39 1679.8 C 1254.43 1677.61 1213.54 1680.41 1187.53 1680.31 L 990.297 1679.02 C 946.748 1679.24 903.198 1679.18 859.649 1678.84 C 838.419 1678.63 816.515 1677.84 795.344 1677.93 C 788.746 1677.95 778.444 1682.43 773.703 1686.8 C 765.177 1694.66 743.118 1714.08 738.178 1723.51 L 738.196 1725.49 C 740.617 1725.15 740.022 1725.29 742.258 1724.47 C 742.996 1729.65 741.633 1734.22 742.122 1739.62 C 748.043 1741.24 770.441 1740.81 777.935 1740.85 L 854.591 1740.93 L 1175.31 1741.35 L 1364.79 1741.17 L 1420.7 1740.91 C 1427.42 1740.83 1444.65 1740.81 1450.94 1739.84 C 1453.64 1733.8 1455.54 1729.21 1457.75 1722.98 C 1455.97 1721.52 1452.54 1717.83 1450.78 1716.04 C 1442.9 1709.34 1431.08 1696.86 1424.15 1689.2 C 1420.58 1685.38 1417.86 1682.09 1414.61 1678.07 L 1403.3 1677.77 C 1369.88 1680.11 1310.7 1682.3 1277.39 1679.8 z M 154.538 398.412 C 149.874 403.708 137.722 414.841 136.697 420.329 C 134.238 433.49 135.083 449.856 135.187 463.464 L 135.572 525.148 L 135.903 835.103 C 137.778 836.661 136.767 836.193 138.843 836.693 C 144.354 836.934 148.454 837.253 153.99 836.574 C 156.569 832.694 195.808 794.615 200.062 790.896 C 201.408 788.751 202.09 786.021 201.977 783.527 C 201.115 764.452 200.593 745.45 200.527 726.36 L 200.467 511.945 C 200.488 468.76 199.765 419.198 201.263 376.625 C 201.764 375.666 202.494 370.824 202.742 369.44 C 202.956 360.548 203.633 353.764 205.66 345.168 C 198.901 351.816 192.019 358.338 185.017 364.73 L 183.531 369.811 C 178.841 374.392 158.585 395.741 154.538 398.412 z M 1419.66 1638.74 C 1423.93 1625.89 1452.68 1603.25 1463.54 1590.31 L 1462.19 1587.62 L 1463.8 1584.29 L 1463.13 1582.75 L 1460.41 1582.76 C 1395.59 1582.14 1330.76 1581.98 1265.93 1582.27 C 1190.25 1581.78 1114.57 1581.77 1038.89 1582.21 C 1003.67 1582.49 968.45 1582.49 933.232 1582.23 C 918.755 1582.06 893.755 1580.61 880.835 1581.2 C 869.765 1588.24 856.837 1602.48 850.297 1613.67 L 849.473 1614.1 C 846.559 1617.96 842.653 1622.86 839.998 1626.76 C 839.576 1634.22 839.307 1637.61 840.254 1644.96 C 843.316 1644.45 872.343 1644.95 877.705 1644.97 L 969.046 1645.06 L 1279 1645.1 C 1305.19 1645.01 1331.38 1645.1 1357.57 1645.37 C 1373.58 1645.59 1394.82 1646.61 1410.46 1645.64 C 1413.55 1643.37 1416.62 1641.08 1419.66 1638.74 z M 239.22 1666.95 C 250.545 1676.93 279.236 1707.03 287.61 1713.09 L 288.168 1713.02 C 293.591 1711.89 299.078 1711.96 304.616 1711.84 C 303.497 1701.99 304.614 1661.77 304.62 1649.97 L 304.639 1509.23 L 304.643 1350.9 C 304.645 1335.97 303.743 1288.35 305.815 1275.13 C 290.438 1259.14 261.667 1233.73 248.695 1217.37 L 245.483 1216.19 C 241.317 1218.36 240.355 1219.73 239.025 1224.49 C 241.238 1274.96 239.123 1332.53 239.652 1383.46 C 239.937 1410.94 241.239 1474.72 236.685 1498.13 C 235.358 1516.56 236.292 1527.36 236.622 1544.97 C 240.782 1563.8 241.633 1647.2 237.492 1665.59 L 239.22 1666.95 z M 1289.66 872.128 C 1290.18 864.305 1285.02 862.627 1279.75 857.231 C 1270.42 853.963 1232.81 815.734 1226.86 807.135 C 1220.43 806.946 1204.01 810.365 1194.57 810.214 C 1150.6 809.511 1106.34 810.009 1062.34 810.134 C 1041.89 810.219 1021.44 810.166 1000.99 809.972 C 989.86 809.874 974.523 810.044 963.683 808.816 C 951.77 808.758 940.004 806.888 928.402 806.831 C 893.013 806.659 857.522 807.227 822.155 808.37 C 815.001 813.812 778.146 849.893 775.63 856.671 C 775.465 860.276 774.709 864.635 776.528 867.502 C 780.305 869.754 850.634 869.196 862.728 869.208 L 1187.38 868.662 C 1206.65 868.638 1226.33 868.446 1245.59 868.826 C 1258.67 869.084 1276.99 873.418 1289.66 872.128 z M 1136.38 1256.67 C 1148.17 1248.83 1179.17 1222.65 1185.97 1210.96 C 1182.98 1203.32 1181.63 1199.82 1173.38 1197.97 C 1102.03 1192.93 1019 1195.18 946.268 1195.25 C 929.1 1195.23 911.933 1195.33 894.766 1195.53 C 887.197 1195.61 872.184 1196.2 865.199 1195.15 C 862.169 1202.27 860.714 1205.71 858.864 1213.22 C 866.462 1222.21 877.806 1231.57 886.178 1240.83 C 890.919 1245.12 898.611 1253.61 904.161 1257.44 C 905.985 1258.7 905.858 1256.19 908.702 1257.99 C 924.705 1255.93 958.509 1256.76 975.572 1256.8 L 1075.7 1257.05 C 1094.93 1257.09 1117.36 1257.66 1136.38 1256.67 z M 1237.2 1160.44 C 1247.31 1151.94 1272.23 1123.7 1281 1118.72 L 1281.97 1119.92 L 1295.69 1105.42 C 1298.69 1101.68 1302.64 1098.16 1306.13 1094.82 C 1299.3 1095.71 1295.03 1095.92 1288.11 1096.07 L 1280.29 1097.16 L 1281.26 1097.76 L 1281.32 1099.13 C 1266.31 1097.47 1244.65 1098.2 1229.01 1098.27 L 1144.83 1098.58 L 870.491 1098.12 C 848.027 1098.08 825.563 1098.25 803.103 1098.65 C 795.031 1098.77 774.693 1099.57 767.852 1098.68 C 767.15 1105.18 765.658 1116.02 769.665 1121.13 C 777.177 1126.9 787.257 1137.57 793.929 1144.54 C 800.079 1149.6 805.511 1155.21 811.75 1160.18 C 883.835 1161.79 962.29 1160.32 1034.83 1160.37 L 1091.34 1160.37 C 1101.03 1160.37 1116.07 1159.99 1125.45 1160.81 C 1160.18 1159.13 1201.24 1161.52 1237.2 1160.44 z M 39.4409 1037.24 C 40.6328 1079.7 39.8566 1125.59 39.6331 1168.23 C 39.3866 1212.1 39.4417 1255.97 39.7984 1299.84 L 39.7621 1398.5 C 39.7225 1417.91 40.1757 1448.47 37.5055 1466.96 C 38.7461 1471.88 41.8585 1472.18 43.0479 1474.44 C 53.1022 1483.59 62.911 1493.01 72.464 1502.69 C 76.3225 1506.49 90.7569 1520.23 93.1256 1523.78 L 95.3755 1524.3 C 97.1822 1522.82 98.7914 1522.03 99.562 1519.75 C 102.574 1510.85 100.516 1396.87 100.513 1379.57 L 101.039 1082.63 C 101.02 1079.4 101.161 1079.15 99.8705 1076.45 C 86.9228 1065.17 75.1971 1052.85 63.1935 1040.62 C 57.2398 1034.55 51.2947 1027.19 44.6941 1022.11 L 46.2431 1020.75 C 43.5465 1017.5 37.4788 1010.87 33.3042 1011.09 C 32.2704 1013.68 33.0896 1016.02 33.6026 1018.87 C 35.8464 1023.94 36.2814 1025.19 39.8537 1029.36 L 39.4409 1037.24 z M 287.179 265.057 C 280.916 275.458 246.821 303.163 237.881 314.638 C 236.752 316.087 236.149 320.78 235.873 322.761 C 239.578 343.082 240.83 375.658 235.98 396.097 C 236.397 420.357 235.113 436.991 236.708 462.241 C 237.834 468.549 238.981 476.181 239 482.599 C 241.208 495.203 239.97 539.188 240.007 553.967 C 240.125 601.69 239.998 649.948 239.698 697.705 C 239.659 704.032 238.259 736.658 239.717 740.087 C 260.682 741.619 249.046 739.765 262.884 733.711 C 278.478 715.278 285.378 710.531 304.606 695.446 C 307.138 689.294 304.711 660.252 304.676 651.011 L 304.623 510.685 L 304.635 421.217 C 304.634 403.944 305.201 376.872 302.874 360.114 C 301.623 343.367 300.906 327.79 300.785 311.011 C 300.671 295.261 304.066 272.534 296.912 258.637 L 287.179 265.057 z M 36.8634 524.604 C 41.1373 564.88 39.7198 617.101 39.7273 658.258 L 39.9903 829.955 C 39.9393 863.428 38.9595 899.152 39.8691 932.318 C 45.4556 932.805 47.9302 933.132 53.629 932.452 C 69.516 918.319 84.3191 900.468 100.812 885.965 C 102.821 878.839 100.476 850.809 100.595 841.092 C 101.352 779.272 99.7904 716.612 100.963 654.87 C 99.9498 647.402 100.602 609.227 100.603 600.346 C 100.464 555.742 100.636 511.137 101.119 466.536 C 97.7206 465.471 92.7424 463.021 90.3622 464.553 C 76.7965 473.285 61.1184 496.105 47.4906 503.494 C 39.8135 511.406 37.1075 513.317 36.8634 524.604 z M 876.206 754.584 C 875.754 761.913 875.873 764.705 876.589 772.036 C 883.561 773.445 901.038 773.188 908.747 773.23 L 966.211 773.538 C 973.955 773.632 987.09 773.559 994.111 775.419 C 1009.33 777.573 1077.34 777.712 1092.04 775.411 C 1111.08 771.2 1153.61 774.21 1176.38 772.496 C 1176.78 770.009 1177.55 767.45 1177.92 765.191 C 1179.79 753.764 1167.89 752.752 1161.86 741.165 C 1152.77 732.864 1145.85 720.898 1134.92 714.34 C 1134.36 713.965 1133.8 713.59 1133.24 713.214 C 1122.54 707.864 1095.65 714.006 1082.24 713.878 C 1059.95 713.666 1038.18 714.44 1016.54 713.395 C 998.085 712.504 933.04 708.292 917.467 712.1 C 904.129 725.767 888.242 740.186 876.206 754.584 z M 855.622 716.736 C 859.475 715.359 889.999 685.005 896.591 679.515 C 899.193 676.669 904.234 670.477 904.4 666.579 C 905.108 649.899 905.311 632.157 904.734 615.472 C 903.848 589.843 906.195 561.868 903.09 536.535 C 900.78 520.489 900.404 494.724 902.576 479.053 C 897.241 474.871 895.372 473.088 890.754 468.105 C 881.001 458.89 857.486 436.748 850.938 426.372 C 849.147 424.712 846.072 421.263 844.126 420.95 C 839.81 424.916 838.656 426.43 838.716 432.722 C 838.903 452.466 839.699 471.971 839.672 491.757 L 839.349 652.387 C 839.348 663.194 840.666 705.702 839.297 711.575 C 847.072 712.985 849.288 715.107 855.622 716.736 z M 999.566 581.997 C 994.416 574.778 988.851 567.865 982.899 561.292 C 975.325 552.958 962.633 541.777 958.376 532.018 C 952.703 527.804 951.899 521.929 943.536 519.065 C 941.452 519.521 939.639 519.738 937.527 520.025 C 935.89 526.84 938.622 559.796 938.785 569.217 C 939.118 588.376 938.769 608.052 939.029 627.159 C 940.763 627.865 942.839 628.565 944.353 629.565 C 956.583 626.498 991.29 592.371 999.566 581.997 z M 839.28 1548.87 C 842.883 1548.95 850.202 1548.9 853.453 1549.52 C 862.49 1547.53 893.685 1512.53 900.65 1503.88 L 900.778 1502.98 C 902.273 1491.29 900.643 1480.27 900.993 1468.42 C 899.865 1413.65 902.256 1356.66 900.826 1302.68 C 887.638 1289.12 874.348 1276.38 861.648 1262.25 C 859.22 1260.86 854.824 1256.03 853.297 1253.41 C 852.472 1250.38 837.201 1235.84 833.809 1232.47 C 835.362 1241 834.44 1259.04 837.715 1263.34 L 838.952 1262.05 C 839.675 1326.72 839.802 1391.39 839.336 1456.05 C 839.291 1481.35 841.119 1525.22 839.28 1548.87 z M 1411.27 327.328 C 1405.68 324.615 1341.09 326.622 1328.74 326.652 C 1271.88 326.26 1215.02 326.178 1158.16 326.406 C 1068.45 325.827 978.73 325.751 889.015 326.178 C 865.847 326.267 841.872 325.711 818.771 327.01 C 813.828 327.288 815.583 336.283 813.893 340.184 C 813.948 335.88 815.027 327.424 813.576 324.704 C 811.245 323.418 798.682 323.29 793.416 322.458 L 812.081 342.568 L 813.893 340.184 C 816.564 345.361 838.638 364.72 844.561 371.612 L 845.336 372.317 C 856.068 382.242 860.085 394.305 875.963 391.043 C 886.156 388.807 910.159 389.059 921.456 389.089 L 983.503 389.251 L 1279.17 389.066 C 1296.92 389.078 1445.53 390.714 1452.59 387.897 C 1453.05 382.876 1453.46 378.192 1453.68 373.136 C 1449.72 365.254 1420.56 339.103 1411.27 327.328 z M 1323.65 904.67 C 1318.58 902.96 1294.87 906.033 1287.06 906.211 C 1255.52 906.931 1224.04 906.637 1192.5 906.437 L 881.29 905.036 C 845.433 904.643 809.626 901.79 773.648 902.825 C 758.531 903.261 742.499 901.783 727.491 903.665 C 715.466 913.097 695.533 934.135 683.882 945.801 L 683.126 951.696 C 683.688 956.975 683.939 959.271 683.679 964.659 C 693.196 964.891 702.716 965.055 712.236 965.152 C 740.374 964.426 771.095 965.037 799.424 965.083 L 954.678 965.123 L 1039.11 965.05 C 1049.31 965.053 1073.6 964.532 1082.45 965.864 C 1088.88 965.961 1094.19 965.719 1100.41 967.371 L 1100.97 967.517 C 1107.75 968.821 1123.75 968.08 1131.2 967.881 C 1144.86 963.665 1198.64 965.636 1215.64 965.328 C 1266.06 964.415 1321.86 967.205 1372.01 964.089 L 1372.77 964.015 L 1373.73 962.867 C 1373.62 960.484 1373.39 956.899 1371.91 955.031 C 1358.13 937.601 1338.88 921.229 1323.65 904.67 z M 1036.13 1359.75 C 1053.23 1347.23 1072.13 1323.93 1089.21 1309.91 L 1089.79 1311.74 C 1096.84 1304.71 1109.43 1294.11 1117.22 1287.44 C 1110.02 1288.73 1107.66 1289.15 1100.37 1289.09 C 1097.92 1289.39 1090.74 1289.93 1088.95 1291 C 1073.86 1294.64 1009.88 1290.33 990.527 1291.5 C 983.927 1291.9 970.11 1289.95 963.245 1291.93 C 962.523 1289.91 962.819 1290.66 960.996 1289.04 C 951.72 1289.05 947.846 1288.67 938.736 1287.47 C 941.818 1290.47 956.236 1305.71 958.459 1306.64 C 960.189 1303.92 959.854 1303.53 962.409 1301.9 C 961.719 1304.85 960.477 1307.12 961.785 1308.86 C 970.01 1319.79 982.352 1327.63 992.035 1336.02 C 1004.76 1347.05 1011.55 1356.52 1027.49 1363.88 C 1030.17 1362.72 1033.86 1361.35 1036.13 1359.75 z M 1080.24 676.286 C 1080.42 670.466 1080.38 669.024 1082.1 663.316 C 1082.29 668.025 1082.66 673.688 1080.32 677.942 L 1079.62 681.201 C 1088.33 681.312 1098.79 682.219 1107.37 683.304 C 1104.41 680.068 1087.5 661.728 1084.58 661.193 C 1075.16 652.813 1035.9 610.349 1029.7 608.606 C 1026.77 607.781 1024.36 610.026 1021.9 611.41 C 1007.18 626.243 981.373 648.538 964.157 660.971 L 963.371 661.949 C 960.09 665.982 957.615 666.494 956.265 671.375 C 956.727 673.028 956.479 673.774 958.053 674.681 C 965.347 678.88 1066.94 678.034 1080.24 676.286 z M 937.591 1445.1 C 945.106 1444.19 952.99 1446.18 958.335 1445.41 C 963.392 1436.55 996.211 1411.87 997.252 1396.13 C 997.707 1389.25 997.185 1389.88 993.457 1384.83 C 988.181 1381.82 962.449 1356.57 958.025 1351.37 C 950.945 1346.97 949.946 1338.87 941.583 1344.83 L 937.653 1344.09 C 936.62 1355.37 938.789 1368.16 938.907 1379.51 C 939.127 1400.65 940.021 1424.27 937.591 1445.1 z M 1007.21 533.995 C 1014.82 540.937 1033.76 559.847 1039.73 568.086 C 1045.37 574.619 1049.36 579.404 1056.83 583.998 C 1066.66 583.453 1077.22 581.547 1086.81 581.624 C 1128.9 581.962 1173.7 579.237 1215.54 581.166 C 1295.21 580.001 1376.85 581.288 1456.82 581.091 L 1567.73 580.895 C 1584.63 580.894 1606.98 580.278 1623.55 581.096 L 1649.36 580.647 L 1650.43 572.772 C 1636.81 556.387 1618.48 541.903 1604.17 524.2 L 1603.62 522.76 C 1595.06 515.939 1414.24 520.569 1388.24 520.473 C 1371 520.409 1353.82 519.118 1336.59 518.978 C 1279.84 518.648 1223.08 518.691 1166.33 519.106 C 1119.82 522.206 1071 521.287 1024.39 519.681 C 1019.88 519.526 1006.74 518.004 1003.81 519.647 C 1002.67 521.886 1001.52 524.119 1000.35 526.345 C 1001.74 529.953 1005.4 531.003 1007.21 533.995 z M 668.829 1019.83 L 670.727 1017.87 C 679.956 1026.57 688.412 1034.66 697.223 1043.76 C 703.399 1049.83 711.883 1059.18 718.819 1063.47 C 740.087 1064.2 793.785 1065.77 813.157 1063.11 C 827.143 1059.81 915.387 1059.65 929.434 1063.94 C 939.824 1063.52 952.293 1064.16 962.991 1064.2 L 1034.44 1064.26 C 1106.89 1064.69 1179.34 1064.52 1251.78 1063.75 C 1269.15 1063.41 1283.48 1064.65 1301.12 1062.27 C 1311.85 1060.82 1320.38 1067.55 1334.19 1063.75 C 1348.45 1051.29 1361.82 1034.8 1377.24 1021.97 L 1377.94 1023.7 C 1385.42 1016.46 1397.8 1006.28 1405.95 999.52 C 1399.11 1000.08 1383.02 1001.04 1376.69 1000.44 L 1376.98 1003.12 C 1365.68 1001.45 1335.65 1002.06 1322.76 1001.97 C 1280.91 1001.7 1239.05 1001.72 1197.2 1002.05 L 801.084 1001.71 C 773.564 1001.67 746.044 1001.9 718.529 1002.38 C 709.146 1002.57 680.639 1003.87 672.583 1002.73 L 672.316 1000.66 C 661.059 1001.45 657.436 1000.87 646.432 998.128 C 653.403 1004.93 661.713 1013.43 668.829 1019.83 z M 405.642 166.339 C 403.967 160.775 404.364 157.548 404.534 151.837 C 383.426 172.14 363.101 196.518 340.445 216.792 C 338.013 225.05 339.182 310.453 339.15 325.878 L 339.046 552.479 C 338.998 599.658 339.448 647.793 337.839 694.877 C 342.507 701.909 358.327 719.137 365.3 722.451 C 374.16 726.739 392.115 746.146 399.414 754.055 L 398.098 754.657 C 400.474 757.213 405.943 763.9 408.594 764.326 C 408.671 763.661 408.906 762.097 408.856 761.505 C 407.656 756.556 408.446 750.195 407.346 744.113 L 406.6 744.224 L 405.19 749.12 C 405.073 696.735 403.909 643.925 404.955 591.532 C 403.973 584.29 404.589 555.986 404.594 546.446 L 404.655 450.463 L 404.644 248.248 L 404.699 192.369 C 404.741 186.453 404.503 171.142 405.642 166.339 z M 1202.01 777.982 C 1196.3 772.554 1189.43 767.303 1183.33 761.688 C 1176.91 768.663 1180.06 773.095 1172.27 775.263 C 1176.31 775.776 1180.36 776.317 1184.4 776.885 C 1191.39 776.757 1195.03 777.163 1202.01 777.982 z M 1574.25 488.482 C 1567.22 480.101 1557.84 470.613 1550.17 462.506 C 1548.73 462.135 1546.7 462.162 1545.15 462.092 C 1541.46 460.058 1518.21 435.104 1514.38 431.037 C 1509.08 425.552 1508.1 425.349 1500.47 424.176 C 1492.72 426.337 1417.1 426.122 1405.37 425.994 C 1318 425.039 1228.69 427.96 1141.66 423.867 C 1108.89 421.45 1064.04 423.919 1029.64 422.947 C 1008.91 423.908 987.849 424.914 967.136 425.726 C 958.463 426.066 926.454 425.452 920.294 427 C 918.538 433.508 918.662 437.087 917.542 443.18 C 918.955 448.274 922.279 448.922 924.174 451.79 C 930.432 457.694 944.27 470.327 949.488 476.607 C 958.748 484.846 958.762 486.069 970.649 486.112 C 989.168 484.542 1010.17 485.058 1028.85 485.094 L 1114.22 485.274 C 1196.24 484.824 1278.26 484.853 1360.28 485.361 C 1369.17 485.038 1379.69 485.036 1388.62 485.347 C 1440.99 487.171 1496.64 482.227 1548.64 485.167 C 1551.24 486.392 1568.68 487.543 1574.25 488.482 z M 1147.77 1548.01 C 1161.06 1544.88 1187.29 1545.07 1200.81 1547.48 C 1215.4 1549.84 1246.55 1548.87 1262.48 1548.53 C 1309.99 1547.53 1360.77 1550.89 1407.93 1547.09 C 1442.69 1544.28 1472.25 1550.53 1505.62 1549.58 C 1525.54 1538.06 1530.8 1528.12 1545.31 1512.79 C 1548.42 1505.6 1561.46 1492.43 1560.31 1485.64 C 1553.82 1486.19 1540.98 1485.67 1533.87 1485.68 C 1519.5 1485.81 1505.13 1486.03 1490.77 1486.33 C 1415.48 1486.89 1340.19 1486.8 1264.91 1486.05 C 1203.75 1486.45 1142.6 1486.12 1081.45 1485.07 C 1072.33 1484.94 1024.88 1484.69 1018.27 1483.18 C 1005.26 1482.84 987.247 1482.18 974.488 1483.97 C 968.093 1489.04 963.225 1494.42 957.638 1500.29 C 949.94 1513.46 941.301 1520.1 930.757 1530.9 C 930.506 1535.42 929.76 1539.47 931.489 1543.5 C 932.583 1544.15 933.484 1544.78 934.649 1545.22 C 943.224 1544 960.718 1544.74 969.719 1545.07 C 977.636 1545.05 1001.31 1545.26 1008.08 1547.14 C 1018.29 1548.52 1034.33 1548.42 1044.87 1548.47 C 1067.45 1548.58 1090.03 1548.57 1112.61 1548.42 C 1121.77 1548.33 1139.26 1547.48 1147.77 1548.01 z M 135.285 1563.52 C 145.414 1570.85 175.77 1600.45 181.408 1610.63 C 183.434 1614.47 190.642 1622.1 194.507 1623.95 L 196.566 1622.79 C 202.179 1614.76 200.24 1591.16 200.177 1580.99 L 200.251 1529.23 L 200.375 1310.45 L 200.23 1242.17 C 200.2 1229.86 199.748 1211.87 200.925 1199.94 C 200.935 1193.49 201.855 1185.39 202.429 1178.81 C 191.737 1169.36 179.317 1157.53 169.713 1147.05 C 160.3 1138.83 153.128 1130.85 145.169 1121.28 C 140.763 1118.37 142.355 1118.45 138.366 1119.23 C 132.455 1124.15 135.468 1145.84 135.518 1154.19 L 135.56 1222.72 L 135.54 1464.62 L 135.369 1522.99 C 135.326 1534.32 135.78 1550.19 134.012 1561.01 L 135.285 1563.52 z M 740.721 749.506 C 742.767 761.916 745.926 802.303 743.475 814.202 C 744.105 816.866 744.261 818.941 746.085 820.909 L 750.221 820.78 C 758.192 818.063 779.585 794.335 788.685 786.39 C 794.626 777.271 805.205 776.56 804.941 760.641 C 802.874 636.032 806.533 510.781 804.52 386.22 C 802.308 384.308 794.037 373.978 792.05 371.21 C 782.894 358.455 762.317 343.214 755.073 330.236 C 752.077 327.026 751.221 324.843 747.113 324.387 C 744.759 324.131 742.433 325.062 740.906 326.871 C 736.882 331.724 738.793 368.005 738.848 375.662 L 738.913 450.876 L 739.307 706.266 C 739.388 718.806 741.124 738.925 740.721 749.506 z M 739.85 1139.06 C 738.054 1146.56 738.728 1155.12 738.889 1162.88 C 739.372 1186.26 739.137 1209.59 739.035 1232.97 L 738.89 1553.58 L 739.144 1629.63 C 739.168 1637.73 736.125 1659.14 742.36 1663.6 C 751.607 1663.28 752.078 1655.25 757.242 1651.91 C 770.557 1630.67 790.181 1619.87 803.826 1600.15 C 805.576 1591.71 804.896 1573.86 804.818 1564.75 C 804.585 1546.47 804.481 1528.2 804.505 1509.92 L 804.563 1323.36 C 804.565 1284.9 803.656 1242.99 806.185 1204.93 C 800.737 1199.23 794.152 1194.98 789.535 1189.54 C 779.015 1181.56 759.055 1162.63 753.111 1151.16 C 748.505 1147.43 744.517 1142.94 739.85 1139.06 z M 705.146 869.589 C 706.005 862.175 704.508 832.885 704.424 823.27 L 704.253 716.35 L 704.428 467.561 C 704.403 406.001 703.606 344.154 705.887 282.667 C 696.269 268.902 662.714 230.984 648.543 223.438 C 647.115 224.655 645.73 225.921 644.392 227.236 C 643.704 227.922 639.274 232.838 639.274 232.889 C 639.502 387.848 639.291 681.631 640.156 824.451 C 642.367 840.492 643.909 852.035 643.486 868.499 C 643.058 885.159 640.483 904.185 641.629 920.599 C 646.138 922.535 649.332 921.962 654.727 924.307 C 655.916 922.167 668.284 911.385 670.894 909.705 C 673.821 905.05 700.782 873.778 705.146 869.589 z M 1644.2 1389.07 L 1234.53 1388.96 L 1119.64 1388.75 C 1101.9 1388.79 1083.34 1388.73 1065.62 1389.53 C 1058.89 1389.84 1052.75 1392.14 1048.13 1397.13 C 1036.18 1410.01 1030.32 1421.59 1016.12 1432.97 L 1013.13 1436.57 C 1010.55 1439.7 1009.56 1442.58 1010.79 1446.57 C 1015.45 1450.03 1056.44 1448.7 1065.29 1448.72 L 1167.16 1448.74 L 1463.22 1448.97 C 1485.32 1448.99 1579.29 1447.62 1594.37 1452.6 C 1596.82 1452.57 1599.82 1452.06 1602.31 1451.73 C 1618.54 1436.24 1636.21 1418.95 1651.1 1402.2 C 1654.39 1398.5 1654.43 1395.18 1655.07 1390.27 C 1651.44 1389.9 1647.82 1389.5 1644.2 1389.07 z M 399.782 1216.24 C 389.756 1228.48 357.099 1263.28 343.461 1270.49 C 341.541 1271.93 337.714 1274.45 337.68 1276.94 C 337.316 1303.7 339.029 1330.88 338.988 1357.65 L 338.95 1650.51 L 338.952 1718.31 C 339.023 1731.77 339.918 1754.22 337.74 1766.5 C 349.244 1784.62 371.653 1797.06 384.753 1813.99 C 388.732 1819.13 395.718 1826.76 401.332 1830.03 C 405.679 1823.69 404.727 1802.43 404.686 1794.15 C 404.498 1756.25 404.571 1718.36 404.583 1680.46 L 404.614 1406.97 L 404.62 1284 C 404.649 1265.05 406.166 1231.67 403.155 1214.53 L 399.782 1216.24 z"/>
<path transform="translate(0,0)" fill="var(--COLOR12)" d="M 1882.46 177.153 C 1894.79 187.977 1914.26 207.532 1925.58 219.739 C 1920.67 219.199 1887.55 186.535 1882.86 180.83 C 1882.73 179.604 1882.6 178.379 1882.46 177.153 z"/>
<path transform="translate(0,0)" fill="var(--COLOR12)" d="M 1813.29 1871.62 C 1813.7 1866.76 1836.82 1843.65 1841.55 1840.22 L 1843.69 1841.02 C 1838 1847.96 1820.34 1866.6 1813.29 1871.62 z"/>
<path transform="translate(0,0)" fill="var(--COLOR12)" d="M 1659.06 1936.33 L 1660.37 1936.04 C 1664.67 1935.1 1665.44 1934.58 1669.26 1936.09 L 1670.03 1937.52 C 1664.91 1942.04 1610.91 1939.73 1601.69 1939.52 C 1575.31 1938.91 1545.78 1942.57 1519.98 1940.83 L 1218.5 1940.74 C 1168.17 1940.49 1116 1939.17 1065.74 1940.01 C 1051.81 1941.38 1020.71 1940.28 1005.63 1940.49 C 954.908 1941.2 903.603 1939.35 852.84 1939.64 C 848.987 1940.15 834.054 1939.82 829.582 1939.82 L 783.861 1939.86 L 662.218 1939.71 C 643.095 1939.77 609.832 1942.38 592.398 1938.25 C 597.028 1938.33 600.863 1939.43 602.997 1935.15 C 633.502 1937.6 676.036 1936.38 707.208 1936.36 L 882.445 1936.36 L 1405.58 1936.34 L 1573.16 1936.48 C 1582.44 1936.49 1655.83 1937.49 1659.06 1936.33 z"/>
<path transform="translate(0,0)" fill="var(--COLOR13)" d="M 1151.45 1937.35 L 1434.93 1937.18 L 1506.96 1937.16 C 1519.35 1937.18 1542.83 1936.43 1554.02 1939.15 C 1544.12 1939.59 1529.48 1939.82 1519.98 1940.83 L 1218.5 1940.74 C 1168.17 1940.49 1116 1939.17 1065.74 1940.01 C 1065.02 1939.02 1065.33 1939.63 1065 1938.1 C 1077.4 1938.47 1142.71 1939.66 1151.45 1937.35 z"/>
<path transform="translate(0,0)" fill="var(--COLOR14)" d="M 852.84 1939.64 C 858.978 1935.96 1129.28 1937.17 1151.45 1937.35 C 1142.71 1939.66 1077.4 1938.47 1065 1938.1 C 1065.33 1939.63 1065.02 1939.02 1065.74 1940.01 C 1051.81 1941.38 1020.71 1940.28 1005.63 1940.49 C 954.908 1941.2 903.603 1939.35 852.84 1939.64 z"/>
<path transform="translate(0,0)" fill="var(--COLOR12)" d="M 672.316 1000.66 C 678.215 996.904 694.31 997.32 701.757 997.327 C 760.255 997.387 818.853 997.779 877.353 998.01 C 977.885 997.459 1078.42 997.621 1178.95 998.496 L 1308.21 998.436 C 1321.92 998.413 1363.49 997.37 1374.35 999.851 C 1375.13 1000.03 1375.91 1000.23 1376.69 1000.44 L 1376.98 1003.12 C 1365.68 1001.45 1335.65 1002.06 1322.76 1001.97 C 1280.91 1001.7 1239.05 1001.72 1197.2 1002.05 L 801.084 1001.71 C 773.564 1001.67 746.044 1001.9 718.529 1002.38 C 709.146 1002.57 680.639 1003.87 672.583 1002.73 L 672.316 1000.66 z"/>
<path transform="translate(0,0)" fill="var(--COLOR12)" d="M 682.723 943.16 C 687.586 933.832 717.266 906.09 727.031 901.095 C 734.602 897.222 761.888 901.446 773.129 901.511 L 904.763 901.218 L 1184.41 901.183 C 1217.4 901.333 1250.97 900.214 1284.01 900.427 C 1292.42 900.482 1320.8 896.831 1326.14 903.214 L 1323.65 904.67 C 1318.58 902.96 1294.87 906.033 1287.06 906.211 C 1255.52 906.931 1224.04 906.637 1192.5 906.437 L 881.29 905.036 C 845.433 904.643 809.626 901.79 773.648 902.825 C 758.531 903.261 742.499 901.783 727.491 903.665 C 715.466 913.097 695.533 934.135 683.882 945.801 L 682.723 943.16 z"/>
<path transform="translate(0,0)" fill="var(--COLOR13)" d="M 773.681 851.297 C 775.83 854.693 775.433 852.922 775.159 856.736 L 775.63 856.671 C 775.465 860.276 774.709 864.635 776.528 867.502 C 780.305 869.754 850.634 869.196 862.728 869.208 L 1187.38 868.662 C 1206.65 868.638 1226.33 868.446 1245.59 868.826 C 1258.67 869.084 1276.99 873.418 1289.66 872.128 C 1292.24 871.37 1294.46 870.662 1296.34 872.83 L 1295.51 873.75 C 1281.32 878.377 1264.91 874.498 1249.33 874.718 C 1140.56 875.371 1031.79 874.619 923.034 872.462 L 824.509 871.847 C 804.038 871.803 787.864 872.871 766.458 871.925 C 760.855 871.872 756.42 872.744 750.915 873.597 L 773.681 851.297 z"/>
<path transform="translate(0,0)" fill="var(--COLOR15)" d="M 773.681 851.297 C 775.83 854.693 775.433 852.922 775.159 856.736 C 774.76 860.306 774.949 867.874 773.35 870.392 C 770.341 871.464 769.564 871.477 766.458 871.925 C 760.855 871.872 756.42 872.744 750.915 873.597 L 773.681 851.297 z"/>
<path transform="translate(0,0)" fill="var(--COLOR12)" d="M 875.963 391.043 C 886.156 388.807 910.159 389.059 921.456 389.089 L 983.503 389.251 L 1279.17 389.066 C 1296.92 389.078 1445.53 390.714 1452.59 387.897 L 1452.12 390.779 C 1456.46 393.589 1462.32 392.012 1468.02 392.924 C 1460.49 393.805 1438.64 393.227 1429.62 393.398 C 1392.39 394.187 1355.15 394.41 1317.92 394.069 L 1125.56 393.941 C 1080.67 393.677 1035.86 392.445 990.989 392.543 C 974.581 392.615 958.853 394.459 942.369 394.178 C 921.3 393.82 899.41 394.987 878.435 393.39 C 877.611 392.608 876.787 391.825 875.963 391.043 z"/>
<path transform="translate(0,0)" fill="var(--COLOR14)" d="M 993.264 1451.67 C 996.945 1448.02 1011.87 1432.59 1016.12 1432.97 L 1013.13 1436.57 C 1010.55 1439.7 1009.56 1442.58 1010.79 1446.57 C 1015.45 1450.03 1056.44 1448.7 1065.29 1448.72 L 1167.16 1448.74 L 1463.22 1448.97 C 1485.32 1448.99 1579.29 1447.62 1594.37 1452.6 C 1588.1 1453.6 1559.84 1453.04 1551.99 1452.99 L 1462.04 1452.55 C 1354.83 1453.79 1247.6 1454.06 1140.38 1453.37 C 1107.55 1453.33 1074.73 1453.1 1041.91 1452.68 C 1026.59 1452.43 1007.88 1450.94 993.264 1451.67 z"/>
<path transform="translate(0,0)" fill="var(--COLOR13)" d="M 1623.55 581.096 L 1649.36 580.647 L 1646.97 583.429 C 1648.32 585.235 1650.66 585.089 1653.59 585.718 L 1636.02 585.875 C 1614.92 587.126 1583.07 586.293 1560.96 586.255 L 1419.08 585.814 C 1308.09 585.561 1194.27 587.442 1083.47 584.251 C 1087.97 580.588 1199.04 583.873 1215.54 581.166 C 1295.21 580.001 1376.85 581.288 1456.82 581.091 L 1567.73 580.895 C 1584.63 580.894 1606.98 580.278 1623.55 581.096 z"/>
<path transform="translate(0,0)" fill="var(--COLOR16)" d="M 1623.55 581.096 L 1649.36 580.647 L 1646.97 583.429 C 1648.32 585.235 1650.66 585.089 1653.59 585.718 L 1636.02 585.875 C 1624.34 584.36 1615.17 586.174 1603.66 582.539 C 1610.06 582.432 1616.07 582.3 1622.41 581.289 L 1623.55 581.096 z"/>
<path transform="translate(0,0)" fill="url(#Gradient5)" d="M 33.6026 1018.87 C 35.8464 1023.94 36.2814 1025.19 39.8537 1029.36 L 39.4409 1037.24 C 40.6328 1079.7 39.8566 1125.59 39.6331 1168.23 C 39.3866 1212.1 39.4417 1255.97 39.7984 1299.84 L 39.7621 1398.5 C 39.7225 1417.91 40.1757 1448.47 37.5055 1466.96 L 36.5029 1467.38 C 34.0495 1454.21 33.8673 1411.46 33.7995 1397.77 C 33.5582 1359.87 33.5757 1321.97 33.852 1284.07 C 34.1831 1258.13 34.3194 1232.18 34.2608 1206.24 C 34.0995 1187.88 33.1142 1165.13 33.9836 1147.28 C 33.0873 1105.14 33.983 1061.3 33.6026 1018.87 z"/>
<path transform="translate(0,0)" fill="var(--COLOR17)" d="M 33.6026 1018.87 C 35.8464 1023.94 36.2814 1025.19 39.8537 1029.36 L 39.4409 1037.24 C 37.0044 1042.02 39.5448 1124.76 38.2596 1138.38 C 38.0907 1134.61 38.602 1129.12 36.842 1126.62 C 33.6446 1131.47 36.9974 1139.14 33.9836 1147.28 C 33.0873 1105.14 33.983 1061.3 33.6026 1018.87 z"/>
<path transform="translate(0,0)" fill="var(--COLOR14)" d="M 756.469 1096.14 C 789.698 1093.88 817.923 1094.81 850.999 1094.36 C 913.907 1093.35 976.823 1092.9 1039.74 1092.99 L 1198.03 1094.21 C 1227.18 1094.56 1259.53 1093.94 1288.11 1096.07 L 1280.29 1097.16 L 1281.26 1097.76 L 1281.32 1099.13 C 1266.31 1097.47 1244.65 1098.2 1229.01 1098.27 L 1144.83 1098.58 L 870.491 1098.12 C 848.027 1098.08 825.563 1098.25 803.103 1098.65 C 795.031 1098.77 774.693 1099.57 767.852 1098.68 L 768.15 1098.15 L 767.64 1097.21 C 763.914 1096.88 760.19 1096.52 756.469 1096.14 z"/>
<path transform="translate(0,0)" fill="var(--COLOR12)" d="M 541.289 1920.92 C 546.454 1910.64 583.501 1877.05 592.88 1870.83 C 596.365 1868.51 652.178 1869.92 659.91 1870 C 678.085 1870.19 816.892 1868.31 820.037 1871.01 C 815.245 1870.89 810.45 1870.9 805.658 1871.03 L 805.5 1871.65 C 815.645 1874.56 897.529 1872.51 912.912 1872.5 L 1077.24 1872.5 C 1115.61 1872.55 1150.02 1873.1 1189 1872.1 L 1188.5 1872 C 1198.52 1871.19 1209.31 1871.85 1219.4 1871.4 C 1267.87 1869.26 1315.46 1873.53 1364 1873.52 C 1330.87 1874.11 1297.27 1873.14 1263.96 1873.8 L 1262.28 1874.79 C 1106.63 1876.43 947.217 1874.8 791.354 1874.15 L 673.104 1874.3 C 654.174 1874.38 613.582 1875.1 596.262 1872.19 C 583.145 1878.54 557.497 1910.58 544.275 1921.25 L 541.289 1920.92 z"/>
<path transform="translate(0,0)" fill="var(--COLOR18)" d="M 169.713 1147.05 C 168.486 1144.46 167.348 1143.12 165.7 1140.79 L 167.509 1140.14 C 179.949 1156.01 193.38 1160.78 205.905 1182.39 L 206.044 1481.54 C 206.075 1533.55 204.897 1588.82 207.5 1640.47 C 204.942 1637.89 196.832 1630.09 195.311 1627.42 C 196.887 1626.16 197.896 1625.5 199.601 1624.4 C 202.173 1617 201.187 1544.76 201.184 1531.8 L 201.204 1363.01 L 201.252 1255.46 C 201.257 1240.52 202.048 1214.13 200.925 1199.94 C 200.935 1193.49 201.855 1185.39 202.429 1178.81 C 191.737 1169.36 179.317 1157.53 169.713 1147.05 z"/>
<path transform="translate(0,0)" fill="var(--COLOR12)" d="M 915.702 1776.16 C 913.439 1775.5 911.17 1774.85 908.895 1774.23 C 917.763 1772.65 954.172 1773.58 965.238 1773.66 L 1078.24 1774.05 L 1365.65 1773.92 C 1407.46 1773.79 1449.06 1772.64 1490.84 1772.8 C 1499.23 1772.84 1502.41 1772.8 1510.05 1776 C 1412.31 1780.35 1304.91 1777.27 1206.15 1777.63 C 1140.25 1777.98 1074.35 1777.99 1008.45 1777.67 C 978.583 1777.41 945.156 1778.08 915.702 1776.16 z"/>
<path transform="translate(0,0)" fill="var(--COLOR14)" d="M 36.8634 524.604 C 41.1373 564.88 39.7198 617.101 39.7273 658.258 L 39.9903 829.955 C 39.9393 863.428 38.9595 899.152 39.8691 932.318 L 38.8227 931.806 L 38.7211 924.598 L 36.9963 919.865 L 34.8762 925.663 C 33.6596 917.967 33.9589 883.3 33.8775 873.531 C 33.5066 829.401 33.5932 785.269 34.1374 741.141 C 32.7838 724.528 33.9554 691.106 33.9675 672.925 L 34.0209 592.683 C 34.0298 580.71 33.912 534.245 36.8634 524.604 z"/>
<path transform="translate(0,0)" fill="var(--COLOR18)" d="M 34.1374 741.141 C 34.5674 736.841 37.5754 687.896 37.4709 688.042 C 38.5472 693.989 38.1528 706.454 38.2018 712.97 L 38.7296 751.199 C 39.1054 808.893 37.9222 867.178 38.7211 924.598 L 36.9963 919.865 L 34.8762 925.663 C 33.6596 917.967 33.9589 883.3 33.8775 873.531 C 33.5066 829.401 33.5932 785.269 34.1374 741.141 z"/>
<path transform="translate(0,0)" fill="var(--COLOR14)" d="M 536.511 1876.97 C 536.638 1870.39 536.278 1863.83 535.951 1857.26 C 534.609 1830.3 535.462 1803.45 535.453 1776.57 L 534.847 1700.3 C 534.228 1571.64 535.104 1442.97 537.473 1314.33 C 537.889 1273.54 537.626 1229.46 537.492 1188.49 L 537.514 1153.27 C 537.545 1149.73 536.515 1146.55 536.823 1143.74 C 538.339 1150.81 537.544 1197.07 537.529 1206.81 L 537.518 1354.33 C 537.524 1365.1 536.385 1395 538.869 1403.61 C 539.992 1450.91 539.013 1501.15 539.047 1548.71 C 539.499 1601.14 539.632 1653.57 539.446 1706 C 538.728 1743.07 538.344 1780.15 538.294 1817.22 C 538.306 1825.47 537.873 1854.14 538.946 1861.21 C 549.114 1865.69 559.163 1850.61 566.557 1844.78 C 563.277 1855.5 545.507 1869.24 536.511 1876.97 z"/>
<path transform="translate(0,0)" fill="var(--COLOR18)" d="M 201.263 376.625 C 201.764 375.666 202.494 370.824 202.742 369.44 C 205.629 416.281 210.641 771.805 201.511 792.446 L 200.062 790.896 C 201.408 788.751 202.09 786.021 201.977 783.527 C 201.115 764.452 200.593 745.45 200.527 726.36 L 200.467 511.945 C 200.488 468.76 199.765 419.198 201.263 376.625 z"/>
<path transform="translate(0,0)" fill="var(--COLOR13)" d="M 708 383.5 C 708.871 386.583 708.865 414.603 708.911 419.487 L 708.974 540.581 C 709.029 602.188 711.165 664.481 710.128 726.212 C 709.734 749.644 710.544 777.738 708.93 800.745 L 707.083 801.54 L 707.338 803.126 L 708.55 803.176 L 708.123 804.479 L 707.244 804.091 C 704.559 796.923 705.198 780.461 705.23 772.25 L 705.38 541.281 C 705.383 492.471 703.938 434.628 706.466 386.506 C 707.297 388.161 707.059 419.375 707.233 424.695 C 708.208 421.758 707.952 389.092 708 383.5 z"/>
<path transform="translate(0,0)" fill="var(--COLOR12)" d="M 1018.27 1483.18 L 1018.78 1481.36 C 1028.14 1481.43 1085.86 1483.56 1090.57 1482.31 C 1087.15 1482.02 1084.98 1482.31 1081.87 1481.55 C 1073.9 1479.58 1035.11 1482.26 1029.86 1480.48 C 1033.97 1478.27 1139.08 1480.38 1153.57 1480.66 L 1317.05 1484.44 C 1374.98 1485.36 1433.27 1484.03 1491.24 1484.42 C 1500.28 1484.48 1547.51 1480.69 1552.72 1483.83 L 1551.17 1484.59 C 1554.42 1485.14 1557.59 1484.6 1560.31 1485.64 C 1553.82 1486.19 1540.98 1485.67 1533.87 1485.68 C 1519.5 1485.81 1505.13 1486.03 1490.77 1486.33 C 1415.48 1486.89 1340.19 1486.8 1264.91 1486.05 C 1203.75 1486.45 1142.6 1486.12 1081.45 1485.07 C 1072.33 1484.94 1024.88 1484.69 1018.27 1483.18 z"/>
<path transform="translate(0,0)" fill="url(#Gradient4)" d="M 234.267 1203.27 C 245.847 1213.69 236.634 1213.06 239.025 1224.49 C 241.238 1274.96 239.123 1332.53 239.652 1383.46 C 239.937 1410.94 241.239 1474.72 236.685 1498.13 C 232.483 1491.34 233.827 1462.01 233.833 1452.47 L 233.895 1387.61 C 233.423 1326.16 233.547 1264.71 234.267 1203.27 z"/>
<path transform="translate(0,0)" fill="url(#Gradient3)" d="M 233.884 669.737 C 234.622 654.323 233.906 632.16 233.874 616.287 L 233.737 513.462 C 233.722 505.744 231.732 464.66 236.708 462.241 C 237.834 468.549 238.981 476.181 239 482.599 C 241.208 495.203 239.97 539.188 240.007 553.967 C 240.125 601.69 239.998 649.948 239.698 697.705 C 239.659 704.032 238.259 736.658 239.717 740.087 L 239.581 741.074 C 238.334 740.204 237.389 739.483 236.319 738.383 C 235.295 741.439 235.563 744.285 235.119 747.44 C 234.063 721.553 233.652 695.644 233.884 669.737 z"/>
<path transform="translate(0,0)" fill="var(--COLOR13)" d="M 239 482.599 C 241.208 495.203 239.97 539.188 240.007 553.967 C 240.125 601.69 239.998 649.948 239.698 697.705 C 239.659 704.032 238.259 736.658 239.717 740.087 L 239.581 741.074 C 238.334 740.204 237.389 739.483 236.319 738.383 C 235.295 741.439 235.563 744.285 235.119 747.44 C 234.063 721.553 233.652 695.644 233.884 669.737 L 235.473 672.958 L 236.813 672.79 C 239.042 665.196 238.712 634.192 238.75 624.822 L 238.803 535.538 C 238.741 519.92 238.001 497.55 239 482.599 z"/>
<path transform="translate(0,0)" fill="var(--COLOR12)" d="M 1141.66 423.867 L 1139.64 422.235 C 1141.44 421.623 1494.98 420.485 1503.78 423.283 C 1501.66 424.008 1502.76 423.705 1500.47 424.176 C 1492.72 426.337 1417.1 426.122 1405.37 425.994 C 1318 425.039 1228.69 427.96 1141.66 423.867 z"/>
<path transform="translate(0,0)" fill="var(--COLOR12)" d="M 970.649 486.112 C 989.168 484.542 1010.17 485.058 1028.85 485.094 L 1114.22 485.274 C 1196.24 484.824 1278.26 484.853 1360.28 485.361 C 1363.93 487.665 1366.17 485.713 1370.52 486.565 C 1353.46 487.67 1337.83 486.113 1321.16 486.562 C 1294.8 487.272 1263.93 485.714 1237.95 488.354 L 1259.02 488.943 C 1217.78 490.967 1168.6 489.377 1126.68 489.58 C 1099.7 489.974 1072.72 490.089 1045.74 489.927 C 1034.16 489.848 1017.64 490.26 1006.59 488.021 C 997.029 486.085 979.123 489.213 970.649 486.112 z"/>
<path transform="translate(0,0)" fill="var(--COLOR18)" d="M 604.729 669.492 C 610.221 678.056 607.435 692.94 608.851 704.018 C 609.089 779.018 609.461 854.106 608.609 929.112 C 608.501 938.581 607.332 948.446 607.089 957.943 C 597.989 950.635 565.12 924.204 562.636 913.359 C 572.194 922.052 585.715 938.145 596.017 945.319 C 600.031 943.464 600.67 942.61 604.032 939.568 C 606.325 933.387 604.613 869.83 604.617 859.12 L 604.729 669.492 z"/>
<path transform="translate(0,0)" fill="var(--COLOR14)" d="M 604.934 298.466 C 607.971 302.125 604.31 336.952 606.566 343.09 C 608.666 339.906 608.116 325.769 608.184 320.804 C 609.328 339.465 608.827 359.523 609.048 378.295 C 609.645 429.004 607.841 479.783 607.466 530.442 C 607.172 570.318 609.264 611.019 608.857 650.974 C 608.692 667.24 609.875 688.12 608.851 704.018 C 607.435 692.94 610.221 678.056 604.729 669.492 C 604.319 651.869 604.418 632.934 604.756 615.319 C 606.775 510.26 601.884 403.311 604.934 298.466 z"/>
<path transform="translate(0,0)" fill="var(--COLOR13)" d="M 619.384 1841.95 C 624.411 1836.48 632.533 1826.11 639.459 1824.92 C 637.177 1829.35 636.656 1828.59 637.198 1832.61 C 640.006 1835.82 639.883 1836.42 645.254 1836.71 C 682.365 1838.69 724.997 1835.25 761.599 1837.13 C 776.849 1836.75 843.18 1836.1 854.907 1839.58 C 854.223 1840.2 853.539 1840.81 852.855 1841.43 C 819.415 1843.96 752.565 1842.61 721.665 1841.86 C 716.41 1842.46 705.33 1841.72 699.566 1841.85 C 674.19 1842.43 644.059 1838.79 619.384 1841.95 z"/>
<path transform="translate(0,0)" fill="var(--COLOR14)" d="M 619.384 1841.95 C 624.411 1836.48 632.533 1826.11 639.459 1824.92 C 637.177 1829.35 636.656 1828.59 637.198 1832.61 C 640.006 1835.82 639.883 1836.42 645.254 1836.71 C 682.365 1838.69 724.997 1835.25 761.599 1837.13 C 750.165 1839.99 695.584 1838.19 691.384 1839.75 C 697.464 1840.37 720.074 1839.99 721.665 1841.86 C 716.41 1842.46 705.33 1841.72 699.566 1841.85 C 674.19 1842.43 644.059 1838.79 619.384 1841.95 z"/>
<path transform="translate(0,0)" fill="var(--COLOR13)" d="M 1281 1118.72 L 1281.97 1119.92 C 1275.19 1129.72 1244.88 1163.2 1232.87 1164.05 C 1219 1165.03 1198.09 1165.13 1183.43 1165.09 L 1093.41 1164.52 L 960.712 1162.4 C 947.754 1162.08 926.56 1163.22 914.199 1161.6 L 1057.29 1161.27 C 1073.04 1161.27 1111.38 1162.23 1125.45 1160.81 C 1160.18 1159.13 1201.24 1161.52 1237.2 1160.44 C 1247.31 1151.94 1272.23 1123.7 1281 1118.72 z"/>
<path transform="translate(0,0)" fill="var(--COLOR12)" d="M 963.683 808.816 C 961.61 807.103 958.237 806.956 955.234 806.377 L 959.852 806.953 L 959.559 806.136 C 1036 803.988 1113.44 807.455 1189.99 805.546 C 1202.22 805.241 1214.61 803.147 1226.83 804.075 L 1226.86 807.135 C 1220.43 806.946 1204.01 810.365 1194.57 810.214 C 1150.6 809.511 1106.34 810.009 1062.34 810.134 C 1041.89 810.219 1021.44 810.166 1000.99 809.972 C 989.86 809.874 974.523 810.044 963.683 808.816 z"/>
<path transform="translate(0,0)" fill="var(--COLOR14)" d="M 1131.2 967.881 C 1144.86 963.665 1198.64 965.636 1215.64 965.328 C 1266.06 964.415 1321.86 967.205 1372.01 964.089 L 1372.77 964.015 L 1372.12 967.943 C 1374.37 969.291 1373.86 969.02 1376.3 969.875 L 1354.13 969.887 C 1347.36 970.496 1332.13 969.818 1324.8 969.667 C 1306.17 969.207 1287.54 968.887 1268.91 968.706 C 1251.23 968.696 1137.78 973.115 1131.2 967.881 z"/>
<path transform="translate(0,0)" fill="var(--COLOR15)" d="M 1372.01 964.089 L 1372.77 964.015 L 1372.12 967.943 C 1374.37 969.291 1373.86 969.02 1376.3 969.875 L 1354.13 969.887 C 1350.18 969.181 1343.59 968.589 1339.29 967.967 C 1340.48 965.098 1366.45 966.911 1372.01 964.089 z"/>
<path transform="translate(0,0)" fill="var(--COLOR14)" d="M 1185.97 1210.96 L 1186.81 1213.37 C 1179.67 1225.68 1147.72 1257.6 1134.25 1259.17 C 1105.86 1262.47 1068.68 1260.78 1039.59 1260.32 C 994.867 1259.62 950.816 1261.14 906.431 1260.96 C 905.34 1260.18 905.636 1260.67 905.317 1259.67 L 906.955 1259.39 L 908.702 1257.99 C 924.705 1255.93 958.509 1256.76 975.572 1256.8 L 1075.7 1257.05 C 1094.93 1257.09 1117.36 1257.66 1136.38 1256.67 C 1148.17 1248.83 1179.17 1222.65 1185.97 1210.96 z"/>
<path transform="translate(0,0)" fill="var(--COLOR17)" d="M 861.648 1262.25 C 868.561 1263.88 896.894 1291.17 902.534 1298.26 C 903.753 1303.57 904.548 1309.01 904.717 1314.47 C 905.89 1352.23 905.407 1390.59 905.214 1428.38 C 905.157 1439.55 905.545 1474.92 903.603 1483.29 L 902.871 1483.37 C 900.743 1479.7 902.826 1475.83 900.993 1468.42 C 899.865 1413.65 902.256 1356.66 900.826 1302.68 C 887.638 1289.12 874.348 1276.38 861.648 1262.25 z"/>
<path transform="translate(0,0)" fill="var(--COLOR13)" d="M 100.963 654.87 C 104.039 666.223 99.8091 691.897 104.998 705.211 C 104.751 741.799 104.725 778.387 104.922 814.975 C 104.983 830.891 106.328 874.856 102.501 888.585 L 100.812 885.965 C 102.821 878.839 100.476 850.809 100.595 841.092 C 101.352 779.272 99.7904 716.612 100.963 654.87 z"/>
<path transform="translate(0,0)" fill="var(--COLOR13)" d="M 1082.45 965.864 C 1088.88 965.961 1094.19 965.719 1100.41 967.371 L 1100.97 967.517 C 1095.83 971.72 1036.34 970.257 1025.63 970.253 C 979.784 970.358 933.937 970.097 888.094 969.469 C 896.812 967.944 924.487 970.171 930.5 968.565 C 925.87 963.313 850.778 969.894 836.072 966.968 C 834.333 966.622 833.05 966.284 831.278 966.687 C 830.828 966.789 830.386 966.927 829.94 967.047 L 828.66 966.301 C 895.095 967.915 962.678 964.808 1029.21 966.093 C 1046.27 966.423 1065.58 966.852 1082.45 965.864 z"/>
<path transform="translate(0,0)" fill="var(--COLOR12)" d="M 103.677 465.62 C 105.005 474.428 103.901 494.132 103.729 503.802 C 103.523 522.28 103.436 540.759 103.469 559.238 C 103.574 605.247 107.151 659.59 104.998 705.211 C 99.8091 691.897 104.039 666.223 100.963 654.87 C 99.9498 647.402 100.602 609.227 100.603 600.346 C 100.464 555.742 100.636 511.137 101.119 466.536 L 103.677 465.62 z"/>
<path transform="translate(0,0)" fill="var(--COLOR12)" d="M 918.451 709.828 C 922.062 706.57 922.352 707.527 926.992 707.893 C 940.893 708.987 955.023 708.497 968.99 708.74 C 1001.81 709.605 1034.64 709.873 1067.47 709.545 C 1085.61 709.351 1103.81 709.025 1121.95 708.617 C 1127.27 708.498 1133.06 708.674 1134.92 714.34 C 1134.36 713.965 1133.8 713.59 1133.24 713.214 C 1122.54 707.864 1095.65 714.006 1082.24 713.878 C 1059.95 713.666 1038.18 714.44 1016.54 713.395 C 998.085 712.504 933.04 708.292 917.467 712.1 L 918.451 709.828 z"/>
<path transform="translate(0,0)" fill="url(#Gradient2)" d="M 237.492 1665.59 L 237.062 1665.83 L 235.696 1665.16 C 232.526 1657.5 232.191 1548.24 235.381 1543.63 L 236.622 1544.97 C 240.782 1563.8 241.633 1647.2 237.492 1665.59 z"/>
<path transform="translate(0,0)" fill="var(--COLOR16)" d="M 958.376 532.018 C 972.164 538.421 994.812 570.723 1004.93 583.577 C 999.047 588.321 994.456 593.564 989.008 598.752 C 971.264 615.652 951.91 630.593 934.044 647.417 C 935.243 639.8 936.159 635.13 935.944 627.475 L 937.384 626.965 C 939.731 629.369 941.026 629.678 944.353 629.565 C 956.583 626.498 991.29 592.371 999.566 581.997 C 994.416 574.778 988.851 567.865 982.899 561.292 C 975.325 552.958 962.633 541.777 958.376 532.018 z"/>
<path transform="translate(0,0)" fill="var(--COLOR12)" d="M 1000.35 526.345 C 995.885 526.516 988.26 517.567 989.485 514.176 C 1019.33 517.589 1040.51 516.817 1070.46 517.014 L 1170.15 517.531 L 1166.33 519.106 C 1119.82 522.206 1071 521.287 1024.39 519.681 C 1019.88 519.526 1006.74 518.004 1003.81 519.647 C 1002.67 521.886 1001.52 524.119 1000.35 526.345 z"/>
<path transform="translate(0,0)" fill="var(--COLOR13)" d="M 933.368 1838.15 C 952.227 1837.1 1042.39 1835.29 1056.08 1840.04 C 1054.6 1841.1 1053.39 1841.83 1051.51 1841.91 C 1039.39 1842.42 934.802 1844.2 931.572 1840.74 L 933.368 1838.15 z"/>
<path transform="translate(0,0)" fill="var(--COLOR13)" d="M 813.157 1063.11 C 827.143 1059.81 915.387 1059.65 929.434 1063.94 C 928.785 1064.48 927.011 1065.97 926.332 1066 C 911.399 1066.73 821.847 1067.96 813.961 1064.97 L 813.157 1063.11 z"/>
<path transform="translate(0,0)" fill="var(--COLOR18)" d="M 507.495 1111.06 C 503.754 1128.98 508.047 1172.85 503.035 1185.11 C 502.186 1181.1 502.279 1176.61 501.892 1172.5 C 500.374 1156.43 502.884 1142.94 498.454 1127.46 L 498.001 1125.85 L 496.82 1125.58 C 490.052 1129.54 446.074 1175.47 438.181 1183.95 C 435.486 1174.62 498.457 1122.36 507.495 1111.06 z"/>
<path transform="translate(0,0)" fill="var(--COLOR12)" d="M 981.194 1742.5 L 1221.17 1742.39 C 1259.46 1742.44 1305.64 1741.08 1343.27 1742.68 L 1337.25 1743.49 C 1275.28 1743.67 1213.31 1743.65 1151.35 1743.48 C 1142.6 1743.46 1131.98 1745.05 1121.43 1745.04 C 1093.13 1745.01 1065.44 1744.76 1037.15 1743.67 C 1019.34 1742.98 998.718 1744.48 981.194 1742.5 z"/>
<path transform="translate(0,0)" fill="var(--COLOR16)" d="M 1438.65 232.243 L 1434.98 230.815 C 1435.97 230.109 1476.88 227.892 1482.51 227.196 C 1464.45 239.908 1448.02 261.885 1431.19 276.587 C 1425.54 281.521 1417.66 292.672 1410.07 292.458 C 1418.89 282.573 1453.64 251.133 1457.59 242.113 L 1459.75 237.131 L 1459.09 235.555 C 1453.6 232.756 1444.88 232.479 1438.65 232.243 z"/>
<path transform="translate(0,0)" fill="var(--COLOR14)" d="M 638.474 941.517 C 639.144 921.983 635.799 833.915 640.156 824.451 C 642.367 840.492 643.909 852.035 643.486 868.499 C 643.058 885.159 640.483 904.185 641.629 920.599 C 646.138 922.535 649.332 921.962 654.727 924.307 C 653.352 927.449 641.64 938.389 638.474 941.517 z"/>
<path transform="translate(0,0)" fill="var(--COLOR13)" d="M 304.977 244.769 C 302.941 264.243 308.748 347.18 302.874 360.114 C 301.623 343.367 300.906 327.79 300.785 311.011 C 300.671 295.261 304.066 272.534 296.912 258.637 L 287.179 265.057 C 292.437 257.851 299.215 251.757 304.977 244.769 z"/>
<path transform="translate(0,0)" fill="var(--COLOR15)" d="M 440.691 792.174 C 453.324 803.967 474.003 825.77 485.844 835.817 C 492.913 836.711 498.834 836.62 505.283 837.333 C 507.319 840.352 507.036 855.566 507.076 860.235 L 488.244 842.839 C 479.501 835.763 443.045 800.978 440.691 792.174 z"/>
<path transform="translate(0,0)" fill="var(--COLOR19)" d="M 505.283 837.333 C 507.319 840.352 507.036 855.566 507.076 860.235 L 488.244 842.839 L 491.402 842.504 C 494.89 838.141 499.876 838.188 505.283 837.333 z"/>
<path transform="translate(0,0)" fill="var(--COLOR12)" d="M 935.944 627.475 C 930.859 605.552 935.097 557.376 934.759 533.919 C 934.692 529.244 934.548 511.742 935.363 508.087 L 936.412 508.132 C 937.935 511.594 937.521 516.12 937.527 520.025 C 935.89 526.84 938.622 559.796 938.785 569.217 C 939.118 588.376 938.769 608.052 939.029 627.159 C 940.763 627.865 942.839 628.565 944.353 629.565 C 941.026 629.678 939.731 629.369 937.384 626.965 L 935.944 627.475 z"/>
<path transform="translate(0,0)" fill="var(--COLOR14)" d="M 404.955 591.532 C 407.804 597.894 404.659 630.632 407.477 644.054 L 408.102 630.519 C 409.405 652.511 408.648 677.681 408.638 699.924 C 408.628 720.355 409.132 741.217 408.856 761.505 C 407.656 756.556 408.446 750.195 407.346 744.113 L 406.6 744.224 L 405.19 749.12 C 405.073 696.735 403.909 643.925 404.955 591.532 z"/>
<path transform="translate(0,0)" fill="var(--COLOR16)" d="M 1644.2 1389.07 L 1642.15 1388.84 L 1642.37 1387.77 L 1641.02 1388.49 L 1640.29 1387.61 C 1645.81 1386.65 1666.88 1387.95 1674.76 1387.79 C 1663.97 1395.25 1655.8 1405.53 1646.03 1414.17 C 1632.8 1425.87 1621.42 1440.13 1607.51 1450.89 C 1606.26 1451.85 1603.77 1451.74 1602.31 1451.73 C 1618.54 1436.24 1636.21 1418.95 1651.1 1402.2 C 1654.39 1398.5 1654.43 1395.18 1655.07 1390.27 C 1651.44 1389.9 1647.82 1389.5 1644.2 1389.07 z"/>
<path transform="translate(0,0)" fill="var(--COLOR12)" d="M 1161.86 741.165 C 1168.11 742.36 1178.03 755.769 1183.33 761.688 C 1176.91 768.663 1180.06 773.095 1172.27 775.263 C 1176.31 775.776 1180.36 776.317 1184.4 776.885 C 1173.71 777.417 1159.01 777.28 1148.31 777.158 C 1135.54 777.012 1101.14 781.763 1092.04 775.411 C 1111.08 771.2 1153.61 774.21 1176.38 772.496 C 1176.78 770.009 1177.55 767.45 1177.92 765.191 C 1179.79 753.764 1167.89 752.752 1161.86 741.165 z"/>
<path transform="translate(0,0)" fill="var(--COLOR16)" d="M 541.289 1920.92 L 544.275 1921.25 C 542.619 1924.31 541.502 1925.53 542.045 1928.92 C 545.631 1932.84 546.784 1932.19 552.769 1932.59 C 566.831 1933.54 589.694 1932.01 602.997 1935.15 C 600.863 1939.43 597.028 1938.33 592.398 1938.25 C 572.228 1938.47 542.591 1936.64 523.567 1938.97 C 528.014 1934.98 539.096 1925.74 541.289 1920.92 z"/>
<path transform="translate(0,0)" fill="var(--COLOR12)" d="M 960.996 1289.04 C 968.325 1288.1 971.019 1289.11 977.707 1288.94 C 993.52 1288.52 1009.16 1288.37 1024.98 1288.46 C 1052.01 1288.62 1073.2 1286.36 1100.37 1289.09 C 1097.92 1289.39 1090.74 1289.93 1088.95 1291 C 1073.86 1294.64 1009.88 1290.33 990.527 1291.5 C 983.927 1291.9 970.11 1289.95 963.245 1291.93 C 962.523 1289.91 962.819 1290.66 960.996 1289.04 z"/>
<path transform="translate(0,0)" fill="var(--COLOR18)" d="M 543.551 1082.76 C 546.834 1069.32 592.263 1030.61 604.504 1019.7 C 604.295 1027.7 607.003 1056.38 604.172 1060.58 L 602.873 1059.35 C 602.476 1053.09 603.123 1033.68 592.967 1037.9 C 577.937 1044.14 554.18 1070.29 543.551 1082.76 z"/>
<path transform="translate(0,0)" fill="var(--COLOR14)" d="M 876.589 772.036 C 883.561 773.445 901.038 773.188 908.747 773.23 L 966.211 773.538 C 973.955 773.632 987.09 773.559 994.111 775.419 C 993.185 776.036 992.389 776.92 991.333 777.271 C 988.47 778.222 881.67 776.877 871.278 776.051 C 874.515 775.565 874.135 775.975 876.776 774.37 L 876.589 772.036 z"/>
<path transform="translate(0,0)" fill="var(--COLOR19)" d="M 809.017 1650.79 C 820.269 1639.31 835.48 1624.24 847.378 1613.77 L 849.473 1614.1 C 846.559 1617.96 842.653 1622.86 839.998 1626.76 C 839.576 1634.22 839.307 1637.61 840.254 1644.96 L 840.507 1645.88 C 839.56 1646.68 814.026 1649.5 809.017 1650.79 z"/>
<path transform="translate(0,0)" fill="var(--COLOR14)" d="M 936.667 1460.57 C 933.077 1443.65 935.948 1393.14 935.01 1373.8 C 934.732 1368.08 934.757 1332.63 935.327 1328.04 L 936.332 1328.2 C 938.73 1332.76 937.946 1338.9 937.653 1344.09 C 936.62 1355.37 938.789 1368.16 938.907 1379.51 C 939.127 1400.65 940.021 1424.27 937.591 1445.1 C 936.376 1448.76 936.696 1456.39 936.667 1460.57 z"/>
<path transform="translate(0,0)" fill="var(--COLOR19)" d="M 873.571 751.046 L 876.206 754.584 C 875.754 761.913 875.873 764.705 876.589 772.036 L 876.776 774.37 C 874.135 775.975 874.515 775.565 871.278 776.051 C 865.159 775.702 850.033 777.712 843.764 778.654 C 853.498 769.225 863.806 760.62 873.571 751.046 z"/>
<path transform="translate(0,0)" fill="var(--COLOR12)" d="M 911.95 422.005 C 929.976 421.423 947.965 421.094 965.944 420.841 C 982.183 420.612 1014.03 423.796 1028.56 421.533 C 1029.71 422.619 1029.56 422.043 1029.64 422.947 C 1008.91 423.908 987.849 424.914 967.136 425.726 C 958.463 426.066 926.454 425.452 920.294 427 L 920.985 424.468 L 919.737 423.139 C 916.966 422.844 914.673 422.472 911.95 422.005 z"/>
<path transform="translate(0,0)" fill="var(--COLOR17)" d="M 47.4906 503.494 C 51.4153 495.178 94.8357 454.746 104.833 441.796 C 103.549 449.65 102.747 457.674 103.677 465.62 L 101.119 466.536 C 97.7206 465.471 92.7424 463.021 90.3622 464.553 C 76.7965 473.285 61.1184 496.105 47.4906 503.494 z"/>
<path transform="translate(0,0)" fill="var(--COLOR18)" d="M 1460.41 1582.76 L 1455.54 1581.74 L 1455.61 1581.2 C 1463.48 1580.34 1470.7 1581.17 1478.38 1580.13 C 1471.45 1586.81 1424.24 1638 1420.1 1639.08 L 1419.66 1638.74 C 1423.93 1625.89 1452.68 1603.25 1463.54 1590.31 L 1462.19 1587.62 L 1463.8 1584.29 L 1463.13 1582.75 L 1460.41 1582.76 z"/>
<path transform="translate(0,0)" fill="var(--COLOR12)" d="M 1277.39 1679.8 C 1277.47 1678.75 1277.36 1679.52 1278.35 1677.68 C 1291.15 1676.62 1396.31 1675.7 1403.3 1677.77 C 1369.88 1680.11 1310.7 1682.3 1277.39 1679.8 z"/>
<path transform="translate(0,0)" fill="var(--COLOR19)" d="M 888.093 418.496 C 894.913 419.864 905.164 421.823 911.95 422.005 C 914.673 422.472 916.966 422.844 919.737 423.139 L 920.985 424.468 L 920.294 427 C 918.538 433.508 918.662 437.087 917.542 443.18 L 916.904 444.441 C 914.227 443.553 892.057 422.162 888.093 418.496 z"/>
<path transform="translate(0,0)" fill="var(--COLOR15)" d="M 1323.65 904.67 L 1326.14 903.214 C 1345.1 918.423 1365.82 941.529 1382.04 959.65 C 1378.76 961.734 1377.69 962.471 1373.73 962.867 C 1373.62 960.484 1373.39 956.899 1371.91 955.031 C 1358.13 937.601 1338.88 921.229 1323.65 904.67 z"/>
<path transform="translate(0,0)" fill="var(--COLOR19)" d="M 682.723 943.16 L 683.882 945.801 L 683.126 951.696 C 682.902 954.607 683.293 967.233 683.267 967.303 C 674.463 966.643 662.023 968.115 653.308 969.692 C 660.04 963.648 677.768 949.151 682.723 943.16 z"/>
<path transform="translate(0,0)" fill="var(--COLOR19)" d="M 1455.69 368.421 C 1463.9 377.734 1471.34 384.807 1480.32 393.383 C 1476.53 393.205 1471.73 392.832 1468.02 392.924 C 1462.32 392.012 1456.46 393.589 1452.12 390.779 L 1452.59 387.897 C 1453.05 382.876 1453.46 378.192 1453.68 373.136 C 1455.14 370.819 1454.82 371.135 1455.69 368.421 z"/>
<path transform="translate(0,0)" fill="var(--COLOR19)" d="M 740.713 1095.01 C 746.337 1095.9 750.831 1095.97 756.469 1096.14 C 760.19 1096.52 763.914 1096.88 767.64 1097.21 L 768.15 1098.15 L 767.852 1098.68 C 767.15 1105.18 765.658 1116.02 769.665 1121.13 L 768.158 1122.43 C 761.264 1114.77 748.651 1103.21 740.713 1095.01 z"/>
<path transform="translate(0,0)" fill="var(--COLOR18)" d="M 1565.45 142.821 C 1563.36 149.845 1520.59 192.727 1511 199.131 C 1507.93 201.184 1496.85 200.13 1492.45 198.887 C 1496.85 198.672 1500.14 198.524 1504.54 197.898 C 1517.1 194.693 1547.79 154.08 1565.45 142.821 z"/>
<path transform="translate(0,0)" fill="var(--COLOR19)" fill-opacity="0.988235" d="M 1376.69 1000.44 C 1383.02 1001.04 1399.11 1000.08 1405.95 999.52 C 1397.8 1006.28 1385.42 1016.46 1377.94 1023.7 L 1377.24 1021.97 C 1377.45 1016.65 1377.07 1008.65 1376.98 1003.12 L 1376.69 1000.44 z"/>
<path transform="translate(0,0)" fill="var(--COLOR19)" d="M 839.297 711.575 C 847.072 712.985 849.288 715.107 855.622 716.736 L 858.905 719.194 C 851.182 725.517 841.993 736.512 835.416 744.341 C 838.821 731.28 836.704 721.305 839.297 711.575 z"/>
<path transform="translate(0,0)" fill="var(--COLOR13)" d="M 740.721 749.506 C 742.767 761.916 745.926 802.303 743.475 814.202 C 742.535 811.192 743.496 810.911 741.849 807.797 L 741.136 807.727 L 740.611 809.137 L 739.524 809.367 L 737.899 805.755 C 737.666 794.234 735.517 758.358 740.721 749.506 z"/>
<path transform="translate(0,0)" fill="var(--COLOR13)" d="M 406.871 146.305 C 407.036 151.776 408 161.883 405.642 166.339 C 403.967 160.775 404.364 157.548 404.534 151.837 C 383.426 172.14 363.101 196.518 340.445 216.792 C 343.002 207.026 395.621 157.635 406.871 146.305 z"/>
<path transform="translate(0,0)" fill="var(--COLOR19)" fill-opacity="0.980392" d="M 1545.15 462.092 C 1546.7 462.162 1548.73 462.135 1550.17 462.506 C 1557.84 470.613 1567.22 480.101 1574.25 488.482 C 1568.68 487.543 1551.24 486.392 1548.64 485.167 C 1548.79 483.924 1548.93 482.68 1549.06 481.434 C 1549.93 473.149 1550.51 468.692 1545.15 462.092 z"/>
<path transform="translate(0,0)" fill="var(--COLOR19)" fill-opacity="0.984314" d="M 205.66 345.168 C 203.633 353.764 202.956 360.548 202.742 369.44 C 202.494 370.824 201.764 375.666 201.263 376.625 L 200.38 375.487 C 195.388 374.702 191.621 371.263 183.531 369.811 L 185.017 364.73 C 192.019 358.338 198.901 351.816 205.66 345.168 z"/>
<path transform="translate(0,0)" fill="var(--COLOR19)" d="M 836.004 1191.43 C 846.123 1193.2 854.829 1193.51 865.083 1194.03 L 865.199 1195.15 C 862.169 1202.27 860.714 1205.71 858.864 1213.22 L 856.842 1214.55 C 850.961 1207.27 842.45 1198.48 836.004 1191.43 z"/>
<path transform="translate(0,0)" fill="var(--COLOR15)" d="M 1512.36 1780.94 L 1514.48 1778.63 C 1522.42 1784.83 1567.6 1830.42 1568.39 1835.61 C 1566.69 1834.18 1564.16 1831.86 1562.33 1830.82 C 1552.25 1823.43 1521.14 1790.8 1512.36 1780.94 z"/>
<path transform="translate(0,0)" fill="url(#Gradient1)" d="M 1084.58 661.193 C 1087.5 661.728 1104.41 680.068 1107.37 683.304 C 1098.79 682.219 1088.33 681.312 1079.62 681.201 L 1080.32 677.942 C 1082.66 673.688 1082.29 668.025 1082.1 663.316 L 1084.58 661.193 z"/>
<path transform="translate(0,0)" fill="var(--COLOR19)" d="M 638.497 1749.14 C 645.823 1749 652.948 1749.04 660.203 1750.3 C 658.893 1752.9 639.519 1771.52 636.718 1774.12 C 637.026 1767.36 637.223 1755.36 638.497 1749.14 z"/>
<path transform="translate(0,0)" fill="var(--COLOR19)" fill-opacity="0.988235" d="M 1100.37 1289.09 C 1107.66 1289.15 1110.02 1288.73 1117.22 1287.44 C 1109.43 1294.11 1096.84 1304.71 1089.79 1311.74 L 1089.21 1309.91 C 1089.21 1303.61 1089.13 1297.3 1088.95 1291 C 1090.74 1289.93 1097.92 1289.39 1100.37 1289.09 z"/>
<path transform="translate(0,0)" fill="var(--COLOR12)" d="M 235.873 322.761 C 239.578 343.082 240.83 375.658 235.98 396.097 C 232.425 387.461 232.983 330.722 235.873 322.761 z"/>
<path transform="translate(0,0)" fill="var(--COLOR19)" d="M 1173.38 1197.97 L 1165.53 1195.7 C 1168.21 1195.02 1183.09 1195.7 1187.02 1195.64 C 1196.27 1195.52 1201.16 1194.82 1210.19 1193 C 1202.21 1198.5 1193.05 1205.9 1186.81 1213.37 L 1185.97 1210.96 C 1182.98 1203.32 1181.63 1199.82 1173.38 1197.97 z"/>
<path transform="translate(0,0)" fill="var(--COLOR15)" d="M 1226.83 804.075 C 1232.44 808.081 1279.14 853.735 1279.75 857.231 C 1270.42 853.963 1232.81 815.734 1226.86 807.135 L 1226.83 804.075 z"/>
<path transform="translate(0,0)" fill="var(--COLOR15)" d="M 200.062 790.896 L 201.511 792.446 C 195.438 802.37 166.459 831.541 156.517 838.063 L 153.99 836.574 C 156.569 832.694 195.808 794.615 200.062 790.896 z"/>
<path transform="translate(0,0)" fill="var(--COLOR18)" fill-opacity="0.984314" d="M 637.893 1063.68 C 637.088 1066.19 638.049 1066.29 636.587 1068.64 L 635.7 1067.39 C 636.3 1063.78 633.14 1036.19 632.412 1031.67 C 639.017 1038.66 645.964 1045.05 652.19 1052.43 L 651.977 1054.17 C 647.058 1053.33 638.744 1058.07 637.893 1063.68 z"/>
<path transform="translate(0,0)" fill="var(--COLOR19)" d="M 1457.75 1722.98 L 1458.55 1722.39 C 1466.54 1728.87 1472.9 1735.99 1481.36 1742.51 C 1474.84 1741.45 1453.56 1740.88 1450.94 1739.84 C 1453.64 1733.8 1455.54 1729.21 1457.75 1722.98 z"/>
<path transform="translate(0,0)" fill="var(--COLOR12)" d="M 1036.13 1359.75 C 1053.23 1347.23 1072.13 1323.93 1089.21 1309.91 L 1089.79 1311.74 C 1081.81 1325.56 1052.88 1351.62 1038.15 1360.6 L 1036.13 1359.75 z"/>
<path transform="translate(0,0)" fill="var(--COLOR16)" fill-opacity="0.976471" d="M 838.952 1262.05 L 837.715 1263.34 C 834.44 1259.04 835.362 1241 833.809 1232.47 C 837.201 1235.84 852.472 1250.38 853.297 1253.41 C 848.216 1253.86 840.858 1257.28 838.952 1262.05 z"/>
<path transform="translate(0,0)" fill="var(--COLOR15)" d="M 100.812 885.965 L 102.501 888.585 C 95.3533 898.442 65.2489 927.16 54.9612 935.133 L 53.629 932.452 C 69.516 918.319 84.3191 900.468 100.812 885.965 z"/>
<path transform="translate(0,0)" fill="var(--COLOR16)" d="M 343.461 1270.49 C 345.123 1265.54 393.882 1216.92 399.782 1216.24 C 389.756 1228.48 357.099 1263.28 343.461 1270.49 z"/>
<path transform="translate(0,0)" fill="var(--COLOR13)" d="M 755.073 330.236 C 763.277 332.031 805.664 376.206 804.52 386.22 C 802.308 384.308 794.037 373.978 792.05 371.21 C 782.894 358.455 762.317 343.214 755.073 330.236 z"/>
<path transform="translate(0,0)" fill="var(--COLOR19)" d="M 305.786 1713.04 C 306.068 1720.82 306.153 1730.67 307.089 1738.22 C 300.879 1731.51 294.717 1724.75 288.605 1717.95 L 287.61 1713.09 L 288.168 1713.02 C 293.987 1713.13 299.989 1713.36 305.786 1713.04 z"/>
<path transform="translate(0,0)" fill="var(--COLOR15)" d="M 1604.17 524.2 L 1606.54 523.673 C 1614.29 528.681 1647.63 564.16 1655.86 572.766 C 1652.35 573.961 1654.1 573.904 1650.43 572.772 C 1636.81 556.387 1618.48 541.903 1604.17 524.2 z"/>
<path transform="translate(0,0)" fill="var(--COLOR13)" d="M 248.695 1217.37 C 256.041 1220.2 305.928 1268.06 306.864 1274.4 L 305.815 1275.13 C 290.438 1259.14 261.667 1233.73 248.695 1217.37 z"/>
<path transform="translate(0,0)" fill="var(--COLOR15)" d="M 737.899 805.755 L 739.524 809.367 L 740.611 809.137 L 741.136 807.727 L 741.849 807.797 C 743.496 810.911 742.535 811.192 743.475 814.202 C 744.105 816.866 744.261 818.941 746.085 820.909 L 750.221 820.78 L 754.211 824.505 C 748.111 830.476 742.1 836.218 736.451 842.632 C 737.09 838.586 737.896 834.348 738.078 830.277 L 737.899 805.755 z"/>
<path transform="translate(0,0)" fill="var(--COLOR16)" d="M 737.899 805.755 L 739.524 809.367 L 740.611 809.137 L 741.136 807.727 L 741.849 807.797 C 743.496 810.911 742.535 811.192 743.475 814.202 C 744.105 816.866 744.261 818.941 746.085 820.909 C 741.393 821.087 741.777 820.26 739.34 822.707 C 738.971 825.432 738.777 827.605 738.078 830.277 L 737.899 805.755 z"/>
<path transform="translate(0,0)" fill="var(--COLOR13)" d="M 803.826 1600.15 C 802.569 1610.04 764.735 1651.72 757.242 1651.91 C 770.557 1630.67 790.181 1619.87 803.826 1600.15 z"/>
<path transform="translate(0,0)" fill="var(--COLOR15)" d="M 929.631 1529.56 L 930.757 1530.9 C 930.506 1535.42 929.76 1539.47 931.489 1543.5 C 932.583 1544.15 933.484 1544.78 934.649 1545.22 C 930.645 1548.76 931.754 1547.67 925.89 1548.99 C 917.512 1549.23 912.248 1550.81 904.302 1553.02 C 912.601 1545.51 921.845 1537.49 929.631 1529.56 z"/>
<path transform="translate(0,0)" fill="var(--COLOR16)" d="M 773.681 851.297 C 778.717 843.43 813.264 808.334 822.155 808.37 C 815.001 813.812 778.146 849.893 775.63 856.671 L 775.159 856.736 C 775.433 852.922 775.83 854.693 773.681 851.297 z"/>
<path transform="translate(0,0)" fill="var(--COLOR15)" d="M 1411.27 327.328 C 1420.42 328.012 1448.51 360.083 1455.69 368.421 C 1454.82 371.135 1455.14 370.819 1453.68 373.136 C 1449.72 365.254 1420.56 339.103 1411.27 327.328 z"/>
<path transform="translate(0,0)" fill="var(--COLOR19)" fill-opacity="0.988235" d="M 607.078 130.713 C 613.985 131.827 623.73 132.044 630.913 132.411 C 630.292 138.676 629.596 141.987 631.013 148.228 L 631.015 149.1 L 630.81 151.671 L 629.931 152.202 C 624.857 149.382 612.017 135.717 607.078 130.713 z"/>
<path transform="translate(0,0)" fill="var(--COLOR19)" d="M 35.0942 941.324 C 35.8223 937.675 35.1711 935.5 36.9774 931.919 L 38.8227 931.806 L 39.8691 932.318 C 45.4556 932.805 47.9302 933.132 53.629 932.452 L 54.9612 935.133 C 47.7957 941.482 39.5336 949.263 33.6366 956.816 L 35.0942 941.324 z"/>
<path transform="translate(0,0)" fill="var(--COLOR19)" d="M 839.28 1548.87 C 842.883 1548.95 850.202 1548.9 853.453 1549.52 C 855.808 1549.73 855.523 1549.65 857.835 1550.28 L 858.285 1551.41 C 851.807 1557.4 844.596 1565.3 837.904 1571.71 C 838.092 1563.99 838.094 1556.5 839.28 1548.87 z"/>
<path transform="translate(0,0)" fill="var(--COLOR15)" fill-opacity="0.988235" d="M 646.432 998.128 C 657.436 1000.87 661.059 1001.45 672.316 1000.66 L 672.583 1002.73 C 669.708 1007.07 671.107 1012.61 670.727 1017.87 L 668.829 1019.83 C 661.713 1013.43 653.403 1004.93 646.432 998.128 z"/>
<path transform="translate(0,0)" fill="var(--COLOR15)" d="M 937.591 1445.1 C 945.106 1444.19 952.99 1446.18 958.335 1445.41 C 955.067 1450.01 942.384 1462.77 937.022 1463.99 C 936.678 1462.18 936.683 1462.45 936.667 1460.57 C 936.696 1456.39 936.376 1448.76 937.591 1445.1 z"/>
<path transform="translate(0,0)" fill="var(--COLOR18)" d="M 900.65 1503.88 C 901.11 1509.99 895.901 1514.62 892.376 1519.13 C 888.64 1523.91 862.461 1550.2 858.285 1551.41 L 857.835 1550.28 C 855.523 1549.65 855.808 1549.73 853.453 1549.52 C 862.49 1547.53 893.685 1512.53 900.65 1503.88 z"/>
<path transform="translate(0,0)" fill="var(--COLOR17)" d="M 918.451 709.828 L 917.467 712.1 C 904.129 725.767 888.242 740.186 876.206 754.584 L 873.571 751.046 C 882.815 740.832 906.698 714.932 918.451 709.828 z"/>
<path transform="translate(0,0)" fill="var(--COLOR15)" fill-opacity="0.988235" d="M 938.736 1287.47 C 947.846 1288.67 951.72 1289.05 960.996 1289.04 C 962.819 1290.66 962.523 1289.91 963.245 1291.93 C 962.822 1295 962.078 1298.94 962.409 1301.9 C 959.854 1303.53 960.189 1303.92 958.459 1306.64 C 956.236 1305.71 941.818 1290.47 938.736 1287.47 z"/>
<path transform="translate(0,0)" fill="var(--COLOR13)" d="M 964.157 660.971 C 967.736 653.923 1015.3 611.49 1021.9 611.41 C 1007.18 626.243 981.373 648.538 964.157 660.971 z"/>
<path transform="translate(0,0)" fill="var(--COLOR19)" d="M 138.843 836.693 C 144.354 836.934 148.454 837.253 153.99 836.574 L 156.517 838.063 C 149.766 842.751 142.405 850.789 134.004 856.717 C 134.916 850.454 133.488 842.456 135.871 837.399 L 138.843 836.693 z"/>
<path transform="translate(0,0)" fill="var(--COLOR16)" d="M 1552.72 1483.83 C 1560.61 1484.66 1569.58 1484.74 1577.59 1485 C 1567.29 1491.6 1550.23 1512.11 1545.31 1512.79 C 1548.42 1505.6 1561.46 1492.43 1560.31 1485.64 C 1557.59 1484.6 1554.42 1485.14 1551.17 1484.59 L 1552.72 1483.83 z"/>
<path transform="translate(0,0)" fill="var(--COLOR15)" d="M 135.285 1563.52 C 145.414 1570.85 175.77 1600.45 181.408 1610.63 L 179.981 1611.23 C 168.259 1600.36 144.413 1577.18 134.79 1564.99 L 135.285 1563.52 z"/>
<path transform="translate(0,0)" fill="var(--COLOR18)" d="M 288.605 1717.95 C 287.586 1717.18 286.583 1716.39 285.598 1715.58 C 278.513 1709.77 239.847 1673.94 239.22 1666.95 C 250.545 1676.93 279.236 1707.03 287.61 1713.09 L 288.605 1717.95 z"/>
<path transform="translate(0,0)" fill="var(--COLOR13)" d="M 44.6941 1022.11 L 46.2431 1020.75 C 54.5227 1028.68 97.2885 1068.76 100.269 1074.35 L 99.8705 1076.45 C 86.9228 1065.17 75.1971 1052.85 63.1935 1040.62 C 57.2398 1034.55 51.2947 1027.19 44.6941 1022.11 z"/>
<path transform="translate(0,0)" fill="var(--COLOR15)" fill-opacity="0.984314" d="M 1183.33 761.688 C 1189.43 767.303 1196.3 772.554 1202.01 777.982 C 1195.03 777.163 1191.39 776.757 1184.4 776.885 C 1180.36 776.317 1176.31 775.776 1172.27 775.263 C 1180.06 773.095 1176.91 768.663 1183.33 761.688 z"/>
<path transform="translate(0,0)" fill="var(--COLOR15)" d="M 235.119 747.44 C 235.563 744.285 235.295 741.439 236.319 738.383 C 237.389 739.483 238.334 740.204 239.581 741.074 C 245.212 741.993 248.081 742.352 253.827 742.644 C 247.118 749.305 240.321 755.878 233.438 762.359 C 234.218 757.1 234.944 752.789 235.119 747.44 z"/>
<path transform="translate(0,0)" fill="var(--COLOR19)" fill-opacity="0.988235" d="M 793.416 322.458 C 798.682 323.29 811.245 323.418 813.576 324.704 C 815.027 327.424 813.948 335.88 813.893 340.184 L 812.081 342.568 L 793.416 322.458 z"/>
<path transform="translate(0,0)" fill="var(--COLOR13)" d="M 850.938 426.372 C 857.569 427.955 888.205 460.292 892.957 467.099 C 891.729 468.33 892.466 468.002 890.754 468.105 C 881.001 458.89 857.486 436.748 850.938 426.372 z"/>
<path transform="translate(0,0)" fill="var(--COLOR12)" d="M 1147.77 1548.01 C 1161.06 1544.88 1187.29 1545.07 1200.81 1547.48 C 1192.53 1551.91 1156.09 1551.6 1147.77 1548.01 z"/>
<path transform="translate(0,0)" fill="var(--COLOR13)" d="M 896.591 679.515 C 896.126 684.908 864.172 716.836 858.905 719.194 L 855.622 716.736 C 859.475 715.359 889.999 685.005 896.591 679.515 z"/>
<path transform="translate(0,0)" fill="var(--COLOR14)" d="M 1334.19 1063.75 C 1348.45 1051.29 1361.82 1034.8 1377.24 1021.97 L 1377.94 1023.7 C 1371.97 1031.47 1345.54 1059.22 1337.88 1063.49 L 1334.19 1063.75 z"/>
<path transform="translate(0,0)" fill="var(--COLOR19)" d="M 1655.86 572.766 C 1661.05 577.456 1666.36 582.411 1671.74 586.837 C 1665.69 586.507 1659.63 586.134 1653.59 585.718 C 1650.66 585.089 1648.32 585.235 1646.97 583.429 L 1649.36 580.647 L 1650.43 572.772 C 1654.1 573.904 1652.35 573.961 1655.86 572.766 z"/>
<path transform="translate(0,0)" fill="var(--COLOR14)" d="M 902.576 479.053 C 906.089 486.31 906.372 528.726 903.09 536.535 C 900.78 520.489 900.404 494.724 902.576 479.053 z"/>
<path transform="translate(0,0)" fill="var(--COLOR13)" d="M 753.111 1151.16 C 759.789 1153.81 786.746 1182.64 789.521 1188.37 L 789.535 1189.54 C 779.015 1181.56 759.055 1162.63 753.111 1151.16 z"/>
<path transform="translate(0,0)" fill="var(--COLOR13)" d="M 934.649 1545.22 C 943.224 1544 960.718 1544.74 969.719 1545.07 C 971.776 1545.96 973.433 1546.77 975.624 1547.33 C 975.087 1547.62 964.426 1548.41 961.822 1548.95 C 949.621 1549.15 938.093 1549.3 925.89 1548.99 C 931.754 1547.67 930.645 1548.76 934.649 1545.22 z"/>
<path transform="translate(0,0)" fill="var(--COLOR14)" fill-opacity="0.984314" d="M 503.181 1848.01 C 507.302 1854.79 505.945 1893.55 503.629 1901.29 L 503.801 1901.22 C 501.933 1897.02 503.755 1897.86 502.704 1894.29 C 500.877 1876 500.737 1866.1 503.181 1848.01 z"/>
<path transform="translate(0,0)" fill="var(--COLOR12)" d="M 969.719 1545.07 C 977.636 1545.05 1001.31 1545.26 1008.08 1547.14 C 996.268 1551.25 974.077 1551.15 961.822 1548.95 C 964.426 1548.41 975.087 1547.62 975.624 1547.33 C 973.433 1546.77 971.776 1545.96 969.719 1545.07 z"/>
<path transform="translate(0,0)" fill="var(--COLOR18)" d="M 485.462 1912.65 L 485.416 1913.94 L 484.022 1914.1 C 475.459 1906.46 451.925 1884.63 446.099 1875.88 L 446.498 1874.85 L 448.297 1875.27 C 461.014 1887.4 473.406 1899.86 485.462 1912.65 z"/>
<path transform="translate(0,0)" fill="var(--COLOR15)" d="M 1514.38 431.037 C 1522.21 431.71 1544.17 455.782 1550.17 462.506 C 1548.73 462.135 1546.7 462.162 1545.15 462.092 C 1541.46 460.058 1518.21 435.104 1514.38 431.037 z"/>
<path transform="translate(0,0)" fill="var(--COLOR13)" d="M 304.606 695.446 C 303.955 701.067 268.321 731.345 262.884 733.711 C 278.478 715.278 285.378 710.531 304.606 695.446 z"/>
<path transform="translate(0,0)" fill="var(--COLOR13)" d="M 604.547 1799.45 C 605.031 1807.88 582.095 1833.29 574.984 1834.66 C 582.288 1821.2 595.063 1812.54 604.547 1799.45 z"/>
<path transform="translate(0,0)" fill="var(--COLOR18)" d="M 788.685 786.39 C 787.254 790.539 758.523 822.443 754.211 824.505 L 750.221 820.78 C 758.192 818.063 779.585 794.335 788.685 786.39 z"/>
<path transform="translate(0,0)" fill="var(--COLOR12)" d="M 705.146 869.589 C 704.954 877.499 679.753 907.193 670.894 909.705 C 673.821 905.05 700.782 873.778 705.146 869.589 z"/>
<path transform="translate(0,0)" fill="var(--COLOR12)" d="M 653.877 1055.28 C 661.168 1057.48 693.054 1086.26 693.797 1094.07 C 680.156 1081.49 666.844 1068.55 653.877 1055.28 z"/>
<path transform="translate(0,0)" fill="var(--COLOR19)" fill-opacity="0.988235" d="M 1288.11 1096.07 C 1295.03 1095.92 1299.3 1095.71 1306.13 1094.82 C 1302.64 1098.16 1298.69 1101.68 1295.69 1105.42 C 1288.78 1103.47 1292.51 1105.34 1285.15 1106.15 L 1283.96 1104.07 L 1285.41 1099.45 L 1284.56 1097.92 L 1281.26 1097.76 L 1280.29 1097.16 L 1288.11 1096.07 z"/>
<path transform="translate(0,0)" fill="var(--COLOR12)" d="M 1007.21 533.995 C 1014.82 540.937 1033.76 559.847 1039.73 568.086 C 1030.99 567.421 1010.47 542.017 1007.21 533.995 z"/>
<path transform="translate(0,0)" fill="var(--COLOR19)" fill-opacity="0.913725" d="M 1281.26 1097.76 L 1284.56 1097.92 L 1285.41 1099.45 L 1283.96 1104.07 L 1285.15 1106.15 C 1292.51 1105.34 1288.78 1103.47 1295.69 1105.42 L 1281.97 1119.92 L 1281 1118.72 C 1282.21 1115.67 1281.42 1103.21 1281.32 1099.13 L 1281.26 1097.76 z"/>
<path transform="translate(0,0)" fill="var(--COLOR16)" fill-opacity="0.968627" d="M 33.6026 1018.87 C 33.0896 1016.02 32.2704 1013.68 33.3042 1011.09 C 37.4788 1010.87 43.5465 1017.5 46.2431 1020.75 L 44.6941 1022.11 C 42.8238 1024.69 41.2821 1026.52 39.8537 1029.36 C 36.2814 1025.19 35.8464 1023.94 33.6026 1018.87 z"/>
<path transform="translate(0,0)" fill="var(--COLOR13)" d="M 398.098 754.657 C 389.056 747.707 372.628 732.603 364.914 724.053 L 365.3 722.451 C 374.16 726.739 392.115 746.146 399.414 754.055 L 398.098 754.657 z"/>
<path transform="translate(0,0)" fill="var(--COLOR19)" d="M 1382.04 959.65 L 1393.14 970.441 L 1376.3 969.875 C 1373.86 969.02 1374.37 969.291 1372.12 967.943 L 1372.77 964.015 L 1373.73 962.867 C 1377.69 962.471 1378.76 961.734 1382.04 959.65 z"/>
<path transform="translate(0,0)" fill="var(--COLOR14)" d="M 743.182 267.074 C 753.455 273.674 764.609 289.835 773.416 293.846 C 771.603 295.047 772.593 294.576 770.06 294.614 C 760.116 289.519 749.693 278.13 742.839 269.379 L 743.182 267.074 z"/>
<path transform="translate(0,0)" fill="var(--COLOR18)" d="M 71.4259 1505.21 C 65.6627 1500.89 42.1919 1480.36 43.0479 1474.44 C 53.1022 1483.59 62.911 1493.01 72.464 1502.69 L 71.4259 1505.21 z"/>
<path transform="translate(0,0)" fill="var(--COLOR18)" d="M 154.538 398.412 L 153.748 397.591 C 163.49 385.504 173.158 374.821 185.017 364.73 L 183.531 369.811 C 178.841 374.392 158.585 395.741 154.538 398.412 z"/>
<path transform="translate(0,0)" fill="var(--COLOR13)" d="M 958.025 1351.37 C 965.828 1354.38 991.268 1377.29 993.457 1384.83 C 988.181 1381.82 962.449 1356.57 958.025 1351.37 z"/>
<path transform="translate(0,0)" fill="var(--COLOR18)" d="M 670.727 1017.87 C 679.956 1026.57 688.412 1034.66 697.223 1043.76 L 695.247 1044.34 C 690.019 1043.26 673.37 1024.7 668.829 1019.83 L 670.727 1017.87 z"/>
<path transform="translate(0,0)" fill="var(--COLOR13)" d="M 812.081 342.568 L 813.893 340.184 C 816.564 345.361 838.638 364.72 844.561 371.612 C 837.528 371.117 817.644 348.682 812.081 342.568 z"/>
<path transform="translate(0,0)" fill="var(--COLOR13)" d="M 858.864 1213.22 C 866.462 1222.21 877.806 1231.57 886.178 1240.83 C 878.967 1240.75 860.982 1220.75 856.842 1214.55 L 858.864 1213.22 z"/>
<path transform="translate(0,0)" fill="var(--COLOR13)" d="M 929.631 1529.56 C 932.95 1524.58 952.668 1501.9 957.638 1500.29 C 949.94 1513.46 941.301 1520.1 930.757 1530.9 L 929.631 1529.56 z"/>
<path transform="translate(0,0)" fill="var(--COLOR13)" d="M 1079.62 681.201 C 1075.86 682.506 1033.79 679.629 1031.74 678.299 C 1047.61 678.651 1064.39 678.163 1080.32 677.942 L 1079.62 681.201 z"/>
<path transform="translate(0,0)" fill="var(--COLOR12)" d="M 1424.15 1689.2 C 1431.22 1689.28 1449.79 1709.56 1450.78 1716.04 C 1442.9 1709.34 1431.08 1696.86 1424.15 1689.2 z"/>
<path transform="translate(0,0)" fill="var(--COLOR12)" d="M 145.169 1121.28 C 151.123 1122.56 164.277 1134.96 167.509 1140.14 L 165.7 1140.79 C 167.348 1143.12 168.486 1144.46 169.713 1147.05 C 160.3 1138.83 153.128 1130.85 145.169 1121.28 z"/>
<path transform="translate(0,0)" fill="var(--COLOR15)" fill-opacity="0.92549" d="M 405.19 749.12 L 406.6 744.224 L 407.346 744.113 C 408.446 750.195 407.656 756.556 408.856 761.505 C 408.906 762.097 408.671 763.661 408.594 764.326 C 405.943 763.9 400.474 757.213 398.098 754.657 L 399.414 754.055 C 401.586 750.688 401.514 750.894 405.19 749.12 z"/>
<path transform="translate(0,0)" fill="var(--COLOR12)" d="M 72.464 1502.69 C 76.3225 1506.49 90.7569 1520.23 93.1256 1523.78 C 87.1531 1522.12 73.0091 1511.35 71.4259 1505.21 L 72.464 1502.69 z"/>
<path transform="translate(0,0)" fill="var(--COLOR13)" d="M 769.665 1121.13 C 777.177 1126.9 787.257 1137.57 793.929 1144.54 C 786.356 1141.58 772.127 1129.17 768.158 1122.43 L 769.665 1121.13 z"/>
<path transform="translate(0,0)" fill="var(--COLOR12)" d="M 949.488 476.607 C 943.474 476.191 925.253 458.23 924.174 451.79 C 930.432 457.694 944.27 470.327 949.488 476.607 z"/>
<path transform="translate(0,0)" fill="var(--COLOR13)" d="M 683.126 951.696 C 683.688 956.975 683.939 959.271 683.679 964.659 C 693.196 964.891 702.716 965.055 712.236 965.152 C 707.717 966.596 687.128 969.605 683.267 967.303 C 683.293 967.233 682.902 954.607 683.126 951.696 z"/>
<path transform="translate(0,0)" fill="var(--COLOR17)" d="M 34.8762 925.663 L 36.9963 919.865 L 38.7211 924.598 L 38.8227 931.806 L 36.9774 931.919 C 35.1711 935.5 35.8223 937.675 35.0942 941.324 L 34.8762 925.663 z"/>
</g></svg>